<?xml version="1.0" encoding="utf-8"?>
<!-- Generator: Adobe Illustrator 27.5.0, SVG Export Plug-In . SVG Version: 6.00 Build 0)  -->
<svg version="1.1" xmlns="http://www.w3.org/2000/svg" xmlns:xlink="http://www.w3.org/1999/xlink" x="0px" y="0px"
	 viewBox="0 0 3710 3710" style="enable-background:new 0 0 3710 3710;" xml:space="preserve">
<g id="Background">
	<g>
		<g>
			<rect style="fill:#FFFFFF;" width="3710" height="3710"/>
		</g>
	</g>
</g>
<g id="Illustration">
	<g>
		<circle style="fill:#F4F7FA;" cx="1885.811" cy="1840.116" r="1456.738"/>
		<g>
			<g>
				
					<linearGradient id="SVGID_1_" gradientUnits="userSpaceOnUse" x1="-3462.4788" y1="1072.4518" x2="-3486.3735" y2="2141.7817" gradientTransform="matrix(-0.8247 -0.227 -0.2456 0.8922 166.1373 395.0387)">
					<stop  offset="0" style="stop-color:#AA80F9"/>
					<stop  offset="0.9964" style="stop-color:#6165D7"/>
				</linearGradient>
				<path style="fill:url(#SVGID_1_);" d="M2409.931,2836.331c-39.288-25.857,55.895-258.33,141.715-412.058
					c70.482-126.252,153.41-233.001,177.356-220.668c18.33,9.439-4.637,85.18,11.986,91.22
					c22.271,8.094,69.131-125.831,114.673-121.333c28.061,2.772,52.308,57.765,53.216,108.306
					c1.638,91.185-72.986,151.577-235.324,309.968C2465.521,2794.739,2430.152,2849.64,2409.931,2836.331z"/>
				<path style="opacity:0.3;fill:#FFFFFF;" d="M2476.91,2686.097c21.881-65.581,19.995-107.422,59.8-149.822
					c34.768-37.036,56.243-26.456,97.248-69.27c46.44-48.49,30.2-73.869,69.102-111.423
					c54.014-52.142,105.974-23.156,151.781-70.025c14.477-14.812,29.404-38.304,36.69-77.689
					c10.198,20.656,16.878,47.876,17.346,73.931c1.638,91.185-72.986,151.577-235.324,309.968
					c-208.031,202.972-243.4,257.874-263.621,244.564c-3.073-2.022-5.323-5.31-6.819-9.722
					C2442.538,2772.987,2464.173,2724.273,2476.91,2686.097z"/>
			</g>
			<g>
				
					<linearGradient id="SVGID_00000084492009951833218010000014582663177307442325_" gradientUnits="userSpaceOnUse" x1="-3539.1326" y1="1738.2798" x2="-3969.2576" y2="979.5881" gradientTransform="matrix(-0.8247 -0.227 -0.2456 0.8922 166.1373 395.0387)">
					<stop  offset="0.0036" style="stop-color:#E38DDD"/>
					<stop  offset="1" style="stop-color:#9571F6"/>
				</linearGradient>
				<path style="fill:url(#SVGID_00000084492009951833218010000014582663177307442325_);" d="M2334.76,2955.298
					c83.93-187.561,179.052-321.659,250.429-409.02c160.593-196.556,238.764-202.757,273.059-200.14
					c45.704,3.488,104.393,29.581,113.417,73.362c16.884,81.911-147.545,189.508-129.592,220.44
					c9.29,16.007,54.721-10.397,73.061,10.558c25.079,28.656-23.566,119.534-36.649,141.443
					C2777.357,2961.286,2442.661,2959.155,2334.76,2955.298z"/>
				<path style="opacity:0.5;fill:#FFFFFF;" d="M2496.592,2811.929c75.29-48.272,97.784-43.436,138.207-88.097
					c74.54-82.356,47.243-153.156,116.324-205.934c49.251-37.629,77.89-12.92,147.011-52.702
					c28.133-16.192,51.191-36.291,69.976-56.938c1.542,3.606,2.754,7.35,3.556,11.241c16.884,81.911-147.545,189.508-129.592,220.44
					c9.29,16.007,54.721-10.397,73.061,10.558c25.078,28.656-23.566,119.534-36.65,141.443
					c-101.127,169.345-435.823,167.214-543.724,163.357c1.531-3.421,3.073-6.785,4.61-10.171
					C2399.533,2880.035,2455.077,2838.546,2496.592,2811.929z"/>
			</g>
		</g>
		<g>
			<g>
				
					<linearGradient id="SVGID_00000014635088434459650090000017691985700443039907_" gradientUnits="userSpaceOnUse" x1="255.3773" y1="1480.87" x2="-49.6637" y2="1840.6191" gradientTransform="matrix(0.9503 -0.3112 0.3112 0.9503 933.0467 -54.6359)">
					<stop  offset="0" style="stop-color:#FFC444"/>
					<stop  offset="0.9964" style="stop-color:#F36F56"/>
				</linearGradient>
				<path style="fill:url(#SVGID_00000014635088434459650090000017691985700443039907_);" d="M1760.015,1809.811
					c-38.219,9.861-81.337-2.281-108.507-33.827l-383.115-444.872c-34.883-40.51-30.239-100.804,10.537-135
					c41.066-34.433,122.068-36.239,157.617,4.602l390.497,448.641c36.815,42.299,31.005,103.639-12.793,136.681
					C1803.466,1794.173,1772.624,1806.557,1760.015,1809.811z"/>
				
					<linearGradient id="SVGID_00000114055937298977552700000002308937312893896606_" gradientUnits="userSpaceOnUse" x1="217.8038" y1="1449.0104" x2="-87.2381" y2="1808.7606" gradientTransform="matrix(0.9503 -0.3112 0.3112 0.9503 933.0467 -54.6359)">
					<stop  offset="0" style="stop-color:#FFC444"/>
					<stop  offset="0.9964" style="stop-color:#F36F56"/>
				</linearGradient>
				<path style="opacity:0.3;fill:url(#SVGID_00000114055937298977552700000002308937312893896606_);" d="M1278.931,1196.112
					c41.066-34.433,122.068-36.239,157.617,4.601l357.048,410.211c-36.497,2.374-76.096,16.201-125.335-4.816
					c-81.97-34.987-74.073-116.809-145.423-164.025c-32.614-21.582-85.352-38.277-175.28-19.048l-79.163-91.924
					C1233.51,1290.602,1238.154,1230.307,1278.931,1196.112z"/>
				
					<linearGradient id="SVGID_00000083785943887005142380000016191552533511880114_" gradientUnits="userSpaceOnUse" x1="-398.5797" y1="1225.2446" x2="-644.7985" y2="1515.6221" gradientTransform="matrix(-0.9503 0.3112 0.3112 0.9503 310.4457 149.4859)">
					<stop  offset="0.0036" style="stop-color:#E38DDD"/>
					<stop  offset="1" style="stop-color:#9571F6"/>
				</linearGradient>
				<path style="fill:url(#SVGID_00000083785943887005142380000016191552533511880114_);" d="M1116.363,1136.169
					c1.844-0.603,3.717-1.063,5.612-1.407l132.086-44.863l112.866,344.677l-128.579,40.162c-3.018,1.913-6.224,3.449-9.624,4.562
					c-45.433,14.877-107.416-49.875-138.443-144.628C1059.252,1239.919,1070.93,1151.046,1116.363,1136.169z"/>
				
					<linearGradient id="SVGID_00000073723876057851784230000011811551631292166301_" gradientUnits="userSpaceOnUse" x1="396.2335" y1="820.7894" x2="677.7375" y2="2377.8533" gradientTransform="matrix(0.9503 -0.3112 0.3112 0.9503 933.0467 -54.6359)">
					<stop  offset="0" style="stop-color:#AA80F9"/>
					<stop  offset="0.9964" style="stop-color:#6165D7"/>
				</linearGradient>
				<path style="fill:url(#SVGID_00000073723876057851784230000011811551631292166301_);" d="M1254.06,1089.898
					c-12.629,131.215,24.82,245.578,112.866,344.677l1089.885-5.86l-306.597-970.735L1254.06,1089.898z"/>
				
					<linearGradient id="SVGID_00000145773382533813046450000009088101537591680410_" gradientUnits="userSpaceOnUse" x1="299.9018" y1="823.607" x2="584.9185" y2="2400.0999" gradientTransform="matrix(0.9503 -0.3112 0.3112 0.9503 933.0467 -54.6359)">
					<stop  offset="0" style="stop-color:#AA80F9"/>
					<stop  offset="0.9964" style="stop-color:#6165D7"/>
				</linearGradient>
				<path style="opacity:0.3;fill:url(#SVGID_00000145773382533813046450000009088101537591680410_);" d="M2097.508,1231.521
					c-105.387-4.819-179.059-131.298-289.407-100.232c-86.585,24.376-85.16,115.73-171.775,134.189
					c-88.663,18.895-133.291-68.753-239.886-69.893c-48.465-0.518-93.201,17.159-133.393,44.175
					c16.496,70.491,51.031,135.333,103.88,194.816l1089.885-5.86l-165.891-309.362
					C2212.266,1207.905,2148.598,1233.857,2097.508,1231.521z"/>
				
					<linearGradient id="SVGID_00000120536868365874153480000005324804482675133855_" gradientUnits="userSpaceOnUse" x1="-1411.6809" y1="1040.0884" x2="-1972.4298" y2="1701.4061" gradientTransform="matrix(-0.9503 0.3112 0.3112 0.9503 310.4457 149.4859)">
					<stop  offset="0.0036" style="stop-color:#E38DDD"/>
					<stop  offset="1" style="stop-color:#9571F6"/>
				</linearGradient>
				<path style="fill:url(#SVGID_00000120536868365874153480000005324804482675133855_);" d="M2105.12,1004.084
					c90.469,276.279,271.199,465.083,403.671,421.704c132.472-43.378,166.523-302.513,76.054-578.792
					c-90.469-276.279-271.199-465.083-403.671-421.704C2048.701,468.67,2014.651,727.804,2105.12,1004.084z"/>
				
					<linearGradient id="SVGID_00000107571558125358902150000001249596642040030592_" gradientUnits="userSpaceOnUse" x1="-1372.4094" y1="1362.6038" x2="-1912.9803" y2="1376.3759" gradientTransform="matrix(-0.9503 0.3112 0.3112 0.9503 310.4457 149.4859)">
					<stop  offset="0" style="stop-color:#311944"/>
					<stop  offset="1" style="stop-color:#893976"/>
				</linearGradient>
				<path style="fill:url(#SVGID_00000107571558125358902150000001249596642040030592_);" d="M2503.234,1408.814
					c28.124-9.209,51.896-30.056,70.654-61.964c19.092-32.473,32.155-74.68,38.826-125.448
					c14.023-106.723-1.902-237.716-44.842-368.849c-42.94-131.132-107.58-246.174-182.013-323.932
					c-35.408-36.989-70.906-63.294-105.507-78.185c-33.998-14.632-65.497-17.381-93.621-8.171
					c-28.124,9.209-51.896,30.057-70.654,61.964c-19.092,32.473-32.155,74.68-38.826,125.448
					c-5.863,44.624-6.491,93.491-2.097,144.837c6.114,71.454,73.91,125.936,98.896,202.239
					c26.568,81.136,9.487,177.884,49.849,241.68c24.872,39.312,51.828,74.378,80.207,104.025
					c35.408,36.989,70.906,63.294,105.507,78.185C2443.611,1415.275,2475.11,1418.024,2503.234,1408.814z"/>
				<g>
					<defs>
						<path id="SVGID_00000001636773061327186410000004529020422623816603_" d="M2503.234,1408.814
							c28.124-9.209,51.896-30.056,70.654-61.964c19.092-32.473,32.155-74.68,38.826-125.448
							c14.023-106.723-1.902-237.716-44.842-368.849c-42.94-131.132-107.58-246.174-182.013-323.932
							c-35.408-36.989-70.906-63.294-105.507-78.185c-33.998-14.632-65.497-17.381-93.621-8.171
							c-28.124,9.209-51.896,30.057-70.654,61.964c-19.092,32.473-32.155,74.68-38.826,125.448
							c-14.023,106.723,1.902,237.717,44.842,368.849c42.94,131.133,107.581,246.174,182.013,323.932
							c35.408,36.989,70.906,63.294,105.507,78.185C2443.611,1415.275,2475.11,1418.024,2503.234,1408.814z"/>
					</defs>
					<clipPath id="SVGID_00000165203136875619438330000004277574320025307028_">
						<use xlink:href="#SVGID_00000001636773061327186410000004529020422623816603_"  style="overflow:visible;"/>
					</clipPath>
					
						<linearGradient id="SVGID_00000024694670803509438250000007495512887318636173_" gradientUnits="userSpaceOnUse" x1="773.0734" y1="869.9788" x2="956.8727" y2="1886.615" gradientTransform="matrix(0.9503 -0.3112 0.3112 0.9503 933.0467 -54.6359)">
						<stop  offset="0" style="stop-color:#FFC444"/>
						<stop  offset="0.9964" style="stop-color:#F36F56"/>
					</linearGradient>
					
						<path style="clip-path:url(#SVGID_00000165203136875619438330000004277574320025307028_);fill:url(#SVGID_00000024694670803509438250000007495512887318636173_);" d="
						M2366.873,925.638c41.501,126.739-9.468,254.853-112.371,285.707c-101.311,30.377-215.004-45.224-255.351-168.437
						c-40.346-123.212,7.016-250.175,107.182-284.052C2208.071,724.449,2325.371,798.899,2366.873,925.638z"/>
					
						<linearGradient id="SVGID_00000002344880699580606500000010707658730798650240_" gradientUnits="userSpaceOnUse" x1="879.0588" y1="1000.9481" x2="1014.6743" y2="1751.0687" gradientTransform="matrix(0.9503 -0.3112 0.3112 0.9503 933.0467 -54.6359)">
						<stop  offset="0" style="stop-color:#FFC444"/>
						<stop  offset="0.9964" style="stop-color:#F36F56"/>
					</linearGradient>
					
						<path style="opacity:0.3;clip-path:url(#SVGID_00000165203136875619438330000004277574320025307028_);fill:url(#SVGID_00000002344880699580606500000010707658730798650240_);" d="
						M2350.072,928.857c30.818,94.113,14.397,182.23-35.956,196.608c-49.574,14.156-113.491-48.699-143.451-140.194
						c-29.96-91.494-15.3-179.058,33.424-195.812C2253.578,772.442,2319.254,834.743,2350.072,928.857z"/>
				</g>
			</g>
			<g>
				
					<linearGradient id="SVGID_00000143594286749972634170000015438965490766249400_" gradientUnits="userSpaceOnUse" x1="792.7238" y1="1320.5538" x2="1209.916" y2="1689.116" gradientTransform="matrix(-0.9503 0.3112 0.3112 0.9503 3019.1316 -737.4868)">
					<stop  offset="0.0036" style="stop-color:#E38DDD"/>
					<stop  offset="1" style="stop-color:#9571F6"/>
				</linearGradient>
				<path style="opacity:0.3;fill:url(#SVGID_00000143594286749972634170000015438965490766249400_);" d="M2424.354,910.382
					l313.542-88.651c25.563-7.227,51.986,3.393,58.674,23.82l0,0c6.689,20.427-9.034,42.482-34.772,49.173l-315.697,82.07
					c-21.012,5.463-42.654-4.852-48.588-22.974l0,0C2391.58,935.699,2403.485,916.282,2424.354,910.382z"/>
				
					<linearGradient id="SVGID_00000118363449697594075930000018441258582665684120_" gradientUnits="userSpaceOnUse" x1="634.0042" y1="1094.9388" x2="977.9131" y2="1273.1846" gradientTransform="matrix(-0.9503 0.3112 0.3112 0.9503 3019.1316 -737.4868)">
					<stop  offset="0" style="stop-color:#FF9085"/>
					<stop  offset="1" style="stop-color:#FB6FBB"/>
				</linearGradient>
				<path style="fill:url(#SVGID_00000118363449697594075930000018441258582665684120_);" d="M2351.192,729.39l356.947-123.496
					c29.917-10.351,61.593,2.502,70.232,28.886l0,0c8.639,26.384-9.269,55.575-39.478,65.035L2378.469,812.69
					c-23.345,7.311-48.004-5.221-55.425-27.882l0,0C2315.623,762.147,2328.072,737.389,2351.192,729.39z"/>
				
					<linearGradient id="SVGID_00000176727035848970525770000018280887206156969092_" gradientUnits="userSpaceOnUse" x1="693.9837" y1="1274.1854" x2="1093.4524" y2="1627.09" gradientTransform="matrix(-0.9503 0.3112 0.3112 0.9503 3019.1316 -737.4868)">
					<stop  offset="0.0036" style="stop-color:#E38DDD"/>
					<stop  offset="1" style="stop-color:#9571F6"/>
				</linearGradient>
				<path style="fill:url(#SVGID_00000176727035848970525770000018280887206156969092_);" d="M2516.649,829.883l295.87-86.984
					c24.056-7.072,49.078,3.206,55.576,23.049v0c6.498,19.843-8.126,41.32-32.348,47.886l-297.91,80.753
					c-19.882,5.389-40.501-4.609-46.284-22.27l0,0C2485.77,854.657,2496.904,835.688,2516.649,829.883z"/>
				
					<linearGradient id="SVGID_00000165945397155275029560000003553916360669681042_" gradientUnits="userSpaceOnUse" x1="559.1907" y1="1215.4213" x2="938.8677" y2="1412.2052" gradientTransform="matrix(-0.9503 0.3112 0.3112 0.9503 3019.1316 -737.4868)">
					<stop  offset="0" style="stop-color:#FF9085"/>
					<stop  offset="1" style="stop-color:#FB6FBB"/>
				</linearGradient>
				<path style="fill:url(#SVGID_00000165945397155275029560000003553916360669681042_);" d="M2792.219,629.663
					c8.677,26.498,39.23,40.639,68.756,31.423c30.107-9.398,47.666-39.408,38.676-66.86c-8.99-27.452-40.863-41.157-70.654-30.797
					C2799.78,573.589,2783.542,603.164,2792.219,629.663z"/>
				<g>
					
						<linearGradient id="SVGID_00000069383014163309035690000010087354950392906419_" gradientUnits="userSpaceOnUse" x1="763.1229" y1="1413.4171" x2="1248.9534" y2="1842.6166" gradientTransform="matrix(-0.9503 0.3112 0.3112 0.9503 3019.1316 -737.4868)">
						<stop  offset="0" style="stop-color:#AA80F9"/>
						<stop  offset="0.9964" style="stop-color:#6165D7"/>
					</linearGradient>
					<path style="fill:url(#SVGID_00000069383014163309035690000010087354950392906419_);" d="M2429.622,1003.94l378.913-92.478
						c31.819-7.766,65.182,7.557,73.959,34.361v0c8.777,26.804-10.603,54.182-42.723,61.029l-382.494,81.541
						c-24.728,5.271-50.57-9.141-58.092-32.111l0,0C2391.664,1033.313,2405.125,1009.919,2429.622,1003.94z"/>
					<path style="fill:#F4F7FA;" d="M2782.26,969.128c6.587,20.116,31.468,32.191,55.895,26.902
						c24.79-5.368,39.674-26.527,32.908-47.187c-6.765-20.661-32.47-32.548-57.081-26.631
						C2789.732,928.042,2775.673,949.012,2782.26,969.128z"/>
				</g>
			</g>
		</g>
		<g>
			
				<linearGradient id="SVGID_00000112617132946577961340000004061811174107707055_" gradientUnits="userSpaceOnUse" x1="1688.8792" y1="3066.6072" x2="1497.4988" y2="3146.9868">
				<stop  offset="0" style="stop-color:#40447E"/>
				<stop  offset="0.9964" style="stop-color:#3C3B6B"/>
			</linearGradient>
			<path style="fill:url(#SVGID_00000112617132946577961340000004061811174107707055_);" d="M3262.479,2961.884L538.12,2938.156
				v70.205c0,19.055,11.883,35.258,27.976,38.145l770.367,138.247c9.143,1.641,18.414,2.076,27.64,1.298l1868.772-157.624
				c16.684-1.407,29.605-17.66,29.605-37.238V2961.884z"/>
			
				<linearGradient id="SVGID_00000124161701593734589520000004958298321529249211_" gradientUnits="userSpaceOnUse" x1="1433.3279" y1="2223.1296" x2="1225.6307" y2="2310.3625">
				<stop  offset="0" style="stop-color:#40447E"/>
				<stop  offset="0.9964" style="stop-color:#3C3B6B"/>
			</linearGradient>
			<path style="fill:url(#SVGID_00000124161701593734589520000004958298321529249211_);" d="M2385.473,2848.078L568.104,2976.51
				c-32.521,2.298-58.962-22.122-58.962-54.55V1622.756c0-32.428,26.442-58.717,58.962-58.717h1817.369
				c26.792,0,48.454,23.764,48.454,53.079v1174.455C2433.927,2820.888,2412.265,2846.184,2385.473,2848.078z"/>
			
				<linearGradient id="SVGID_00000052819772121130138740000010653285459909753266_" gradientUnits="userSpaceOnUse" x1="538.1198" y1="2270.3496" x2="2462.9055" y2="2270.3496">
				<stop  offset="0" style="stop-color:#40447E"/>
				<stop  offset="0.9964" style="stop-color:#3C3B6B"/>
			</linearGradient>
			<path style="fill:url(#SVGID_00000052819772121130138740000010653285459909753266_);" d="M2414.451,2848.078L597.082,2976.51
				c-32.521,2.298-58.963-22.122-58.963-54.55V1622.756c0-32.428,26.441-58.717,58.963-58.717h1817.369
				c26.793,0,48.455,23.764,48.455,53.079v1174.455C2462.906,2820.888,2441.244,2846.184,2414.451,2848.078z"/>
			<path style="fill:#FFFFFF;" d="M2357.835,2765.276L665.146,2876.837c-26.465,1.744-47.971-18.299-47.971-44.773V1694.61
				c0-26.473,21.506-48.024,47.971-48.133l1692.689-7.005c22.102-0.092,39.979,19.381,39.979,43.494v1036.017
				C2397.814,2743.094,2379.937,2763.82,2357.835,2765.276z"/>
			<path style="fill:#FFFFFF;" d="M1569.951,1599.576c0,12.071-9.354,21.886-20.905,21.921
				c-11.565,0.036-20.951-9.745-20.951-21.844s9.385-21.914,20.951-21.922C1560.597,1577.723,1569.951,1587.503,1569.951,1599.576z"
				/>
			
				<linearGradient id="SVGID_00000000214140390286726750000013875616939554133668_" gradientUnits="userSpaceOnUse" x1="538.1198" y1="2982.1277" x2="3262.4792" y2="2982.1277">
				<stop  offset="0" style="stop-color:#40447E"/>
				<stop  offset="0.9964" style="stop-color:#3C3B6B"/>
			</linearGradient>
			<path style="fill:url(#SVGID_00000000214140390286726750000013875616939554133668_);" d="M2369.104,2842.253L538.12,2977.44
				l798.343,143.266c9.143,1.64,18.414,2.076,27.64,1.298l1898.377-160.12l-864.25-118.712
				C2388.564,2841.844,2378.816,2841.536,2369.104,2842.253z"/>
			
				<linearGradient id="SVGID_00000012450074252164436850000008522395836399738279_" gradientUnits="userSpaceOnUse" x1="805.289" y1="2959.8057" x2="2801.4102" y2="2959.8057">
				<stop  offset="0" style="stop-color:#40447E"/>
				<stop  offset="0.9964" style="stop-color:#3C3B6B"/>
			</linearGradient>
			<polygon style="opacity:0.3;fill:url(#SVGID_00000012450074252164436850000008522395836399738279_);" points="805.289,2980.84 
				2329.638,2866.615 2801.41,2930.895 1290.193,3052.996 			"/>
			<g>
				
					<linearGradient id="SVGID_00000149375421986867384410000010648592989356527038_" gradientUnits="userSpaceOnUse" x1="1958.5332" y1="1277.891" x2="936.7271" y2="2374.2039">
					<stop  offset="0" style="stop-color:#AA80F9"/>
					<stop  offset="0.9964" style="stop-color:#6165D7"/>
				</linearGradient>
				<path style="fill:url(#SVGID_00000149375421986867384410000010648592989356527038_);" d="M2398.022,1859.4l-1781.055,22.125
					v-201.204c0-22.561,18.289-40.85,40.85-40.85h1699.354c22.561,0,40.85,18.29,40.85,40.85V1859.4z"/>
				<g>
					<polygon style="fill:#D8DEE8;" points="1733.587,2398.425 726.608,2440.032 726.608,1964.366 1733.587,1947.481 					"/>
					<polygon style="fill:#D8DEE8;" points="2306.526,2374.752 1792.969,2395.972 1792.969,1946.485 2306.526,1937.874 					"/>
					<polygon style="fill:#D8DEE8;" points="2306.526,2699.033 726.608,2793.104 726.608,2502.147 2306.526,2431.802 					"/>
				</g>
				
					<linearGradient id="SVGID_00000057144509498845251710000014161718011858374798_" gradientUnits="userSpaceOnUse" x1="695.2999" y1="1752.0602" x2="744.6648" y2="1752.0602">
					<stop  offset="0" style="stop-color:#444B8C"/>
					<stop  offset="0.9964" style="stop-color:#26264F"/>
				</linearGradient>
				<path style="fill:url(#SVGID_00000057144509498845251710000014161718011858374798_);" d="M744.665,1751.914
					c0,12.665-11.029,23.01-24.651,23.107c-13.641,0.097-24.714-10.118-24.714-22.815c0-12.697,11.073-23.043,24.714-23.107
					C733.636,1729.035,744.665,1739.249,744.665,1751.914z"/>
				
					<linearGradient id="SVGID_00000124126433510440689170000009337100884243088017_" gradientUnits="userSpaceOnUse" x1="784.9022" y1="1751.5409" x2="833.813" y2="1751.5409">
					<stop  offset="0" style="stop-color:#444B8C"/>
					<stop  offset="0.9964" style="stop-color:#26264F"/>
				</linearGradient>
				<path style="fill:url(#SVGID_00000124126433510440689170000009337100884243088017_);" d="M833.813,1751.399
					c0,12.378-10.927,22.489-24.424,22.583c-13.516,0.094-24.486-9.89-24.486-22.3c0-12.41,10.97-22.521,24.486-22.584
					C822.885,1729.037,833.813,1739.02,833.813,1751.399z"/>
				
					<linearGradient id="SVGID_00000004541900662055765820000016997551764980932788_" gradientUnits="userSpaceOnUse" x1="873.681" y1="1751.0266" x2="922.1437" y2="1751.0266">
					<stop  offset="0" style="stop-color:#444B8C"/>
					<stop  offset="0.9964" style="stop-color:#26264F"/>
				</linearGradient>
				<path style="fill:url(#SVGID_00000004541900662055765820000016997551764980932788_);" d="M922.144,1750.886
					c0,12.322-10.827,22.386-24.201,22.479c-13.392,0.093-24.262-9.845-24.262-22.198s10.87-22.417,24.262-22.479
					C911.316,1728.626,922.144,1738.564,922.144,1750.886z"/>
			</g>
			<path style="opacity:0.48;fill:#FFFFFF;" d="M1976.584,2491.751c-140.103-75.382-250.265,20.135-356.579-74.107
				c-64.455-57.137-32.81-99.743-112.12-185.127c-87.842-94.569-145.032-62.78-233.313-147.893
				c-111.624-107.62-55.796-191.351-151.946-268.619c-116.644-93.737-242.437-6.977-353.474-96.874
				c-47.891-38.773-74.168-95.142-87.889-155.091H572.618c-19.038,0-34.499,15.43-34.499,34.465v1346.737
				c0,19.034,15.461,33.368,34.499,32.017l1852.197-131.473c9.09-0.645,17.15-5.952,22.322-13.646
				c-135.586-4.941-218.884-50.394-272.129-97.382C2070.844,2642.835,2088.911,2552.187,1976.584,2491.751z"/>
		</g>
		<g>
			
				<linearGradient id="SVGID_00000135657961662593572340000011069515071573419451_" gradientUnits="userSpaceOnUse" x1="2280.5698" y1="1962.1512" x2="1428.9332" y2="3399.2861">
				<stop  offset="0" style="stop-color:#AB316D"/>
				<stop  offset="1" style="stop-color:#792D3D"/>
			</linearGradient>
			<path style="fill:url(#SVGID_00000135657961662593572340000011069515071573419451_);" d="M3133.121,1821.759l-202.73,331.682
				l-618.449-6.975l-274.288,530.663l-708.133,24.784l-367.438,566.201c-6.544,10.084-17.384,16.576-29.363,17.587l-47.978,4.045
				c-21.782,3.431-68.298-3.196-61.197-24.072l248.877-563.061l204.675-91.58l688.448-26.32l260.494-521.706l632.628-6.977
				l212.037-322.081L3133.121,1821.759z"/>
			
				<linearGradient id="SVGID_00000138537646208514133300000008204418628660526996_" gradientUnits="userSpaceOnUse" x1="2610.9883" y1="1967.8419" x2="2637.5271" y2="1922.7257">
				<stop  offset="0" style="stop-color:#AB316D"/>
				<stop  offset="1" style="stop-color:#792D3D"/>
			</linearGradient>
			<polygon style="fill:url(#SVGID_00000138537646208514133300000008204418628660526996_);" points="2756.008,1844.062 
				2642.335,1791.798 2769.018,1766.001 			"/>
			
				<linearGradient id="SVGID_00000116955635592513842010000004691076985765452955_" gradientUnits="userSpaceOnUse" x1="3197.1953" y1="1473.698" x2="3165.3489" y2="1749.7035">
				<stop  offset="0" style="stop-color:#AB316D"/>
				<stop  offset="1" style="stop-color:#792D3D"/>
			</linearGradient>
			<polygon style="fill:url(#SVGID_00000116955635592513842010000004691076985765452955_);" points="3189.06,1733.949 
				3248.535,1821.759 3116.575,1821.759 3071.969,1766.001 			"/>
			
				<linearGradient id="SVGID_00000141452165588598456800000017407494856204273046_" gradientUnits="userSpaceOnUse" x1="3211.8162" y1="1723.4818" x2="3275.5098" y2="1256.3975">
				<stop  offset="0" style="stop-color:#AB316D"/>
				<stop  offset="1" style="stop-color:#792D3D"/>
			</linearGradient>
			<polygon style="fill:url(#SVGID_00000141452165588598456800000017407494856204273046_);" points="3262.479,1429.563 
				3207.347,1388.707 3183.484,1719.536 3207.347,1762.06 3248.535,1821.759 			"/>
			
				<linearGradient id="SVGID_00000128468183253317336620000012571645563713368469_" gradientUnits="userSpaceOnUse" x1="2152.0608" y1="2028.0121" x2="1841.5552" y2="2598.5999">
				<stop  offset="0" style="stop-color:#FF9085"/>
				<stop  offset="1" style="stop-color:#FB6FBB"/>
			</linearGradient>
			<polygon style="fill:url(#SVGID_00000128468183253317336620000012571645563713368469_);" points="1713.173,2546.467 
				1998.711,2624.488 2272.999,2093.825 1987.461,2015.804 			"/>
			
				<linearGradient id="SVGID_00000142859316826286424030000008439697575041371582_" gradientUnits="userSpaceOnUse" x1="1189.3971" y1="2545.3835" x2="610.6015" y2="3439.1689">
				<stop  offset="0" style="stop-color:#FF9085"/>
				<stop  offset="1" style="stop-color:#FB6FBB"/>
			</linearGradient>
			<path style="fill:url(#SVGID_00000142859316826286424030000008439697575041371582_);" d="M618.58,3228.149l213.756,58.407
				c22.602,6.176,46.603-2.974,59.358-22.629l398.883-614.656l-285.537-78.021l-401.202,618.228
				C594.392,3204.036,601.841,3223.575,618.58,3228.149z"/>
			
				<linearGradient id="SVGID_00000121968936112948242050000000003037758267644572_" gradientUnits="userSpaceOnUse" x1="1918.5112" y1="2524.1045" x2="704.3552" y2="2739.0691">
				<stop  offset="0" style="stop-color:#FF9085"/>
				<stop  offset="1" style="stop-color:#FB6FBB"/>
			</linearGradient>
			<polygon style="fill:url(#SVGID_00000121968936112948242050000000003037758267644572_);" points="1005.04,2571.251 
				1290.578,2649.272 1998.711,2624.488 1713.173,2546.467 			"/>
			
				<linearGradient id="SVGID_00000083794692879235759690000014070468166755197067_" gradientUnits="userSpaceOnUse" x1="2451.9365" y1="1936.2573" x2="2428.0515" y2="2169.7998">
				<stop  offset="0" style="stop-color:#FF9085"/>
				<stop  offset="1" style="stop-color:#FB6FBB"/>
			</linearGradient>
			<polygon style="fill:url(#SVGID_00000083794692879235759690000014070468166755197067_);" points="1987.461,2015.804 
				2272.999,2093.825 2891.448,2100.8 2605.91,2022.779 			"/>
			
				<linearGradient id="SVGID_00000070828466204955889880000001569346606066655644_" gradientUnits="userSpaceOnUse" x1="2766.2903" y1="1978.4915" x2="3265.2229" y2="1344.2106">
				<stop  offset="0" style="stop-color:#FF9085"/>
				<stop  offset="1" style="stop-color:#FB6FBB"/>
			</linearGradient>
			<polygon style="fill:url(#SVGID_00000070828466204955889880000001569346606066655644_);" points="2642.335,1791.798 
				2750.572,1786.101 2605.91,2022.779 2891.448,2100.8 3094.874,1767.98 3207.347,1762.06 3207.347,1388.707 			"/>
			<g style="opacity:0.3;">
				
					<linearGradient id="SVGID_00000143590053354943054300000003391454642882086832_" gradientUnits="userSpaceOnUse" x1="2128.2141" y1="2015.0349" x2="1817.7087" y2="2585.6223">
					<stop  offset="0" style="stop-color:#FF9085"/>
					<stop  offset="1" style="stop-color:#FB6FBB"/>
				</linearGradient>
				<path style="fill:url(#SVGID_00000143590053354943054300000003391454642882086832_);" d="M1812.828,2527.228
					c82.06-65.866,156.51-25.786,208.994-79.617c44.879-46.03-1.568-83.533,49.761-197.052
					c41.798-92.442,103.092-135.009,115.444-143.311c15.835-10.642,31.083-18.6,44.771-24.682l-244.337-66.763l-274.288,530.663
					l63.694,17.403C1786.308,2551.747,1798.105,2539.046,1812.828,2527.228z"/>
			</g>
			
				<linearGradient id="SVGID_00000129196106238629640760000009318007168761727135_" gradientUnits="userSpaceOnUse" x1="2506.9275" y1="1968.3494" x2="2420.0281" y2="2128.0364">
				<stop  offset="0" style="stop-color:#FF9085"/>
				<stop  offset="1" style="stop-color:#FB6FBB"/>
			</linearGradient>
			<path style="opacity:0.3;fill:url(#SVGID_00000129196106238629640760000009318007168761727135_);" d="M2308.443,2029.623
				c-52.222,3.563-61.59,5.536-61.703,7.962c-0.341,7.322,83.513,21.655,169.186,23.885c76.239,1.984,89.559-7.29,171.176-1.99
				c53.114,3.448,88.696,10.053,89.569,5.971c1.047-4.896-48.337-22.937-101.511-33.837
				C2502.748,2016.769,2436.994,2020.85,2308.443,2029.623z"/>
			
				<linearGradient id="SVGID_00000142178157223487451730000005364911671841595324_" gradientUnits="userSpaceOnUse" x1="1164.8489" y1="2529.4868" x2="586.0514" y2="3423.2751">
				<stop  offset="0" style="stop-color:#FF9085"/>
				<stop  offset="1" style="stop-color:#FB6FBB"/>
			</linearGradient>
			<path style="opacity:0.3;fill:url(#SVGID_00000142178157223487451730000005364911671841595324_);" d="M857.426,2963.13
				c44.167-72.042,60.457-145.458,137.339-181.128c58.88-27.318,98.933-7.272,151.272-41.799
				c40.75-26.882,62.826-69.632,75.358-109.835l-216.355-59.118l-385.296,593.717
				C752.765,3100.471,820.188,3023.869,857.426,2963.13z"/>
		</g>
		<g>
			
				<linearGradient id="SVGID_00000121253028006620924450000000465095176126554296_" gradientUnits="userSpaceOnUse" x1="-227.7397" y1="2320.5144" x2="-35.4264" y2="2320.5144" gradientTransform="matrix(-1 0 0 1 1470.2181 0)">
				<stop  offset="0" style="stop-color:#FFC444"/>
				<stop  offset="0.9964" style="stop-color:#F36F56"/>
			</linearGradient>
			<path style="fill:url(#SVGID_00000121253028006620924450000000465095176126554296_);" d="M1537.774,2120.937
				c24.214-7.072,56.575,37.389,83.477,74.35c40.248,55.296,87.271,119.901,74.603,197.478
				c-12.463,76.323-77.897,135.766-96.545,127.263c-15.949-7.272,14.717-58.606-8.777-127.263
				c-18.956-55.401-50.365-55.421-71.428-109.736C1492.963,2215.619,1507.985,2129.638,1537.774,2120.937z"/>
			
				<linearGradient id="SVGID_00000125588642816727004730000012162754641909295778_" gradientUnits="userSpaceOnUse" x1="442.6677" y1="2681.5979" x2="815.6033" y2="2681.5979" gradientTransform="matrix(-1 0 0 1 2471.8074 0)">
				<stop  offset="0" style="stop-color:#AA80F9"/>
				<stop  offset="0.9964" style="stop-color:#6165D7"/>
			</linearGradient>
			<path style="fill:url(#SVGID_00000125588642816727004730000012162754641909295778_);" d="M1549.755,2472.493
				c124.711,30.277,206.857,78.88,254.832,113.258c26,18.633,38.01,30.254,44.494,47.191
				c36.942,96.527-152.857,242.475-173.084,257.759c-8.836-20.601-17.67-41.201-26.504-61.802
				c19.612-107.647,52.264-141.419,79.587-151.462c7.643-2.81,20.473-5.822,20.225-9.439c-0.589-8.552-72.68,3.635-141.574-21.572
				c-68.697-25.137-137.716-88.738-125.393-130.787C1484.589,2507.965,1494.012,2485.777,1549.755,2472.493z"/>
			
				<linearGradient id="SVGID_00000123422801280158223250000006969598553191378865_" gradientUnits="userSpaceOnUse" x1="2710.844" y1="2818.1235" x2="2726.9636" y2="3108.2825" gradientTransform="matrix(0.9565 0.2918 -0.2918 0.9565 -61.8632 -392.2555)">
				<stop  offset="0.0036" style="stop-color:#E38DDD"/>
				<stop  offset="1" style="stop-color:#9571F6"/>
			</linearGradient>
			<path style="fill:url(#SVGID_00000123422801280158223250000006969598553191378865_);" d="M1670.684,3178.036
				c0,0-11.609,4.135-11.652,13.316c-0.043,9.18,11.759,49.622,24.58,63.991c12.82,14.369,13.967-7.068,13.174-20.878
				c-0.792-13.81-4.153-44.722-7.323-50.701C1686.292,3177.79,1670.684,3178.036,1670.684,3178.036z"/>
			
				<linearGradient id="SVGID_00000025443195199720601130000017333559051558182586_" gradientUnits="userSpaceOnUse" x1="617.9712" y1="2695.6292" x2="990.9064" y2="2695.6292" gradientTransform="matrix(-1 0 0 1 2471.8074 0)">
				<stop  offset="0" style="stop-color:#AA80F9"/>
				<stop  offset="0.9964" style="stop-color:#6165D7"/>
			</linearGradient>
			<path style="opacity:0.3;fill:url(#SVGID_00000025443195199720601130000017333559051558182586_);" d="M1707.958,2613.617
				c22.66-0.444,75.751-4.673,89.887,21.573c11.793,21.897-8.867,55.09-21.574,75.506c-34.543,55.503-68.07,61.181-91.685,95.281
				c-9.14,13.2-17.422,31.636-20.058,57.978c-5.012-11.686-10.024-23.37-15.034-35.056
				c19.612-107.646,52.264-141.419,79.587-151.461c7.643-2.81,20.473-5.822,20.225-9.439c-0.589-8.553-72.68,3.635-141.574-21.572
				c-62.622-22.914-125.302-77.745-126.6-119.123C1580.295,2598.428,1654.929,2614.657,1707.958,2613.617z"/>
			
				<linearGradient id="SVGID_00000117650341270028634380000008343508361951945897_" gradientUnits="userSpaceOnUse" x1="4720.5513" y1="3182.7385" x2="4744.8013" y2="3182.7385" gradientTransform="matrix(-1 0 0 1 6408.7778 0)">
				<stop  offset="0" style="stop-color:#311944"/>
				<stop  offset="1" style="stop-color:#A03976"/>
			</linearGradient>
			<path style="fill:url(#SVGID_00000117650341270028634380000008343508361951945897_);" d="M1663.976,3139.026
				c0.684,14.148,1.885,25.977,2.968,34.76c2.395,19.433,4.598,27.123,7.614,34.127c2.632,6.102,9.208,19.416,12.348,18.492
				c3.191-0.936-0.092-15.686-2.577-56.706c-0.361-5.954-1.458-24.908-1.458-24.908l0,0L1663.976,3139.026z"/>
			
				<linearGradient id="SVGID_00000152249588335331036040000009165513290791571646_" gradientUnits="userSpaceOnUse" x1="641.802" y1="2450.0459" x2="976.1848" y2="2856.3389" gradientTransform="matrix(-1 0 0 1 2471.8074 0)">
				<stop  offset="0" style="stop-color:#AA80F9"/>
				<stop  offset="0.9964" style="stop-color:#6165D7"/>
			</linearGradient>
			<path style="fill:url(#SVGID_00000152249588335331036040000009165513290791571646_);" d="M1477.845,2480.584
				c71.854,43.322,118.499,92.58,145.618,125.843c32.014,39.267,80.711,98.998,98.341,188.062
				c9.399,47.473,4.774,90.058-4.858,173.287c-9.568,82.664-23.28,149.965-34.009,195.927c-5.525,2.218-11.05,4.437-16.575,6.654
				c-14.801-27.191-34.161-70.235-41.101-125.278c-11.355-90.055,22.335-118.672,6.164-182.537
				c-14.007-55.325-54.596-89.248-135.769-157.094c-66.695-55.743-128.191-88.815-151.018-158.344
				c-3.878-11.807-7.172-26.291-0.853-39.553C1357.403,2478.969,1409.511,2468.997,1477.845,2480.584z"/>
			
				<linearGradient id="SVGID_00000091719207765075701740000014490333138404295054_" gradientUnits="userSpaceOnUse" x1="1571.8766" y1="1946.1174" x2="1129.6265" y2="2316.4575" gradientTransform="matrix(-0.9987 -0.0509 -0.0509 0.9987 2565.9993 27.2223)">
				<stop  offset="0" style="stop-color:#444B8C"/>
				<stop  offset="0.9964" style="stop-color:#26264F"/>
			</linearGradient>
			<path style="fill:url(#SVGID_00000091719207765075701740000014490333138404295054_);" d="M1420.487,2126.089
				c18.651-4.011,49.323-3.215,78.564-26.241c8.803-6.932,39.989-31.49,36.202-66.627c-3.333-30.934-32.651-47.558-36.249-49.538
				c-20.756-11.423-41.447-8.885-64.395-5.747c-29.757,4.069-39.641,12.198-60.319,17.772
				c-51.155,13.788-68.454-14.992-119.958-12.563c-65.828,3.103-71.521,51.719-126.906,52.932
				c-62.175,1.361-74.091-59.49-135.478-69.799c-85.207-14.311-214.128,77.417-211.531,183.159
				c1.499,61.073,46.976,131.066,105.063,152.078c33.858,12.248,70.393,8.358,80.821,30.375c7.422,15.668-9.263,27.741-7.686,55.042
				c2.028,35.197,32.331,59.895,37.225,63.883c45.424,37.025,147.265,18.322,216.81-34.067
				C1338.059,2322.273,1319.08,2147.908,1420.487,2126.089z"/>
			
				<linearGradient id="SVGID_00000160907180324663421090000005062782166305658010_" gradientUnits="userSpaceOnUse" x1="-1321.1522" y1="2462.0898" x2="-961.9967" y2="2139.179" gradientTransform="matrix(1 0 0 1 2574.7561 0)">
				<stop  offset="0" style="stop-color:#FFC444"/>
				<stop  offset="0.9964" style="stop-color:#F36F56"/>
			</linearGradient>
			<path style="fill:url(#SVGID_00000160907180324663421090000005062782166305658010_);" d="M1276.435,2113.535
				c42.24-5.204,90.959-9.166,145.097-9.901c114.398-1.553,130.774,12.951,134.964,23.69c7.813,20.017-5.57,30.05,2.029,64.953
				c4.544,20.869,0.249,30.38,9.033,52.803c8.561,21.853,1.846,33.602-5.724,84.843c-9.679,65.523-14.144,98.824,4.191,125.239
				c12.74,18.353,26.993,19.907,25.635,28.625c-2.894,18.574-67.115,8.33-148.423,43.988
				c-23.538,10.321-45.203,23.042-63.371,33.708c-42.542,24.975-50.413,34.527-70.113,45.842
				c-62.303,35.788-155.891,39.237-204.944-4.045c-18.287-16.136-31.615-39.856-25.618-48.539
				c8.167-11.821,44.688,15.031,78.202-1.349c22.202-10.852,17.984-28.406,43.652-49.09c30.891-24.893,52.367-11.85,73.394-28.047
				c32.799-25.266,17.878-85.761,8.671-187.187C1279.3,2247.081,1275.477,2187.125,1276.435,2113.535z"/>
			
				<linearGradient id="SVGID_00000016065223123696217770000005452785004403299001_" gradientUnits="userSpaceOnUse" x1="4925.5845" y1="2091.4231" x2="5052.2144" y2="2091.4231" gradientTransform="matrix(-1 0 0 1 6408.7778 0)">
				<stop  offset="0" style="stop-color:#311944"/>
				<stop  offset="1" style="stop-color:#A03976"/>
			</linearGradient>
			<path style="fill:url(#SVGID_00000016065223123696217770000005452785004403299001_);" d="M1400.236,2089.971
				c-15.603,9.679-40.823,22.33-43.601,25.764c-2.778,3.429,76.407,16.989,125.678-7.875c0,0,7.638-4.243-22.065-10.183
				c-6.329-1.266-5.092-13.578-4.243-26.308l-5.94-11.032C1450.064,2060.337,1415.835,2080.287,1400.236,2089.971z"/>
			
				<linearGradient id="SVGID_00000078022563177921114760000001537390450565996961_" gradientUnits="userSpaceOnUse" x1="4941.6182" y1="2419.6338" x2="4938.8867" y2="2169.7258" gradientTransform="matrix(-1 0 0 1 6408.7778 0)">
				<stop  offset="0" style="stop-color:#311944"/>
				<stop  offset="1" style="stop-color:#A03976"/>
			</linearGradient>
			<path style="fill:url(#SVGID_00000078022563177921114760000001537390450565996961_);" d="M1439.597,2052.841
				c0,0-6.12,25.964,16.746,38.796c20.474,11.492,55.114-35.614,48.644-53.12c-2.157-5.839-9.867-13.345-17.925-15.867
				c-5.667-1.775-27.111-1.091-36.295,16.964c-2.406-5.279-6.713-8.046-9.607-7.178c-3.672,1.097-4.212,7.783-4.337,9.296
				C1436.397,2046.982,1438.514,2051.054,1439.597,2052.841z"/>
			
				<linearGradient id="SVGID_00000080895229060366276460000014010624723809621684_" gradientUnits="userSpaceOnUse" x1="-1309.3533" y1="2475.2129" x2="-950.1963" y2="2152.3005" gradientTransform="matrix(1 0 0 1 2574.7561 0)">
				<stop  offset="0" style="stop-color:#FFC444"/>
				<stop  offset="0.9964" style="stop-color:#F36F56"/>
			</linearGradient>
			<path style="opacity:0.3;fill:url(#SVGID_00000080895229060366276460000014010624723809621684_);" d="M1475.052,2469.057
				c-23.558,9.764-26.738,30.866-59.31,42.835c-31.072,11.418-41.498-2.889-72.49,6.59c-46.548,14.239-64.347,59.153-71.392,54.917
				c-6.455-3.881-0.265-46.849,29.655-74.687c34.361-31.971,71.37-17.33,93.358-50.523c8.555-12.915,15.151-33.547,7.688-49.425
				c-10.113-21.518-36.526-14.055-50.523-31.852c-25.148-31.973,33.702-89.643,17.573-138.39
				c-6.437-19.454-26.932-43.839-93.027-60.16c0.897,48.863,3.712,89.697,6.527,120.707c9.207,101.425,24.128,161.922-8.671,187.187
				c-21.026,16.197-42.503,3.154-73.394,28.047c-25.668,20.684-21.45,38.238-43.652,49.089
				c-33.513,16.38-70.035-10.472-78.202,1.348c-5.997,8.684,7.331,32.403,25.618,48.54c49.052,43.28,142.641,39.833,204.944,4.046
				c19.7-11.316,27.571-20.868,70.113-45.842c18.168-10.667,39.833-23.387,63.371-33.709c57.06-25.023,105.671-27.445,130.61-33.082
				C1524.335,2461.676,1494.172,2461.132,1475.052,2469.057z"/>
			<g>
				
					<linearGradient id="SVGID_00000107571259413314151940000006612212026589800881_" gradientUnits="userSpaceOnUse" x1="-1190.9965" y1="2526.4736" x2="-864.3305" y2="2526.4736" gradientTransform="matrix(1 0 0 1 2574.7561 0)">
					<stop  offset="0" style="stop-color:#444B8C"/>
					<stop  offset="0.9964" style="stop-color:#26264F"/>
				</linearGradient>
				<path style="fill:url(#SVGID_00000107571259413314151940000006612212026589800881_);" d="M1702.425,2502.196l-298.868,14.543
					c-4.114,0.202-7.866,2.405-10.042,5.9l-8.27,13.273c-4.116,6.607,0.829,15.129,8.61,14.832l316.571-12.059L1702.425,2502.196z"
					/>
				
					<linearGradient id="SVGID_00000132084815655378481330000001724734930810836878_" gradientUnits="userSpaceOnUse" x1="-1035.6689" y1="2440.6816" x2="-587.2949" y2="2440.6816" gradientTransform="matrix(1 0 0 1 2574.7561 0)">
					<stop  offset="0" style="stop-color:#444B8C"/>
					<stop  offset="0.9964" style="stop-color:#26264F"/>
				</linearGradient>
				<path style="fill:url(#SVGID_00000132084815655378481330000001724734930810836878_);" d="M1976.788,2337.084l-308.763,5.983
					c-9.136,0.177-17.502,5.154-22.016,13.097l-106.922,188.117l326.092-12.992c8.951-0.357,17.118-5.203,21.718-12.889
					l99.063-165.497C1990.177,2345.859,1984.998,2336.925,1976.788,2337.084z"/>
				
					<linearGradient id="SVGID_00000019669247628003644550000017924718434541449379_" gradientUnits="userSpaceOnUse" x1="2432.1902" y1="2321.7292" x2="2646.3621" y2="2534.1875" gradientTransform="matrix(-1 0 0 1 4315.0347 0)">
					<stop  offset="0" style="stop-color:#444B8C"/>
					<stop  offset="0.9964" style="stop-color:#26264F"/>
				</linearGradient>
				<path style="opacity:0.3;fill:url(#SVGID_00000019669247628003644550000017924718434541449379_);" d="M1646.007,2356.166
					c4.516-7.945,12.882-12.921,22.018-13.099l6.766-0.131c1.009,9.967,4.068,19.084,10.166,26.445
					c19.038,22.981,50.67,8.806,74.247,33.127c25.898,26.715,1.973,58.518,25.128,83.383c24.373,26.17,63.784,4.862,109.089,21.61
					l-6.524,10.898c-4.6,7.687-12.767,12.533-21.718,12.89l-326.092,12.992L1646.007,2356.166z"/>
			</g>
			<g>
				
					<linearGradient id="SVGID_00000183233711003889119710000002383317765249277840_" gradientUnits="userSpaceOnUse" x1="-1172.3245" y1="2459.6765" x2="-1446.5992" y2="2189.7905" gradientTransform="matrix(1 0 0 1 2574.7561 0)">
					<stop  offset="0" style="stop-color:#FFC444"/>
					<stop  offset="0.9964" style="stop-color:#F36F56"/>
				</linearGradient>
				<path style="fill:url(#SVGID_00000183233711003889119710000002383317765249277840_);" d="M1452.515,2502.354
					c3.368-8.894,6.736-17.785,10.104-26.681c-37.221-10.205-88.699-25.282-141.5-44.149c-13.047-4.662-17.822-10.688-21.312-15.317
					c-27.071-35.902,41.821-99.24,40.586-181.424c-0.855-56.969-35.393-122.136-65.826-122.875
					c-61.861-1.503-198.257,260.983-83.379,373.013C1248.206,2540.526,1354.731,2546.979,1452.515,2502.354z"/>
			</g>
			
				<linearGradient id="SVGID_00000080169322923827180290000010572855281992949638_" gradientUnits="userSpaceOnUse" x1="1395.2249" y1="2426.907" x2="1483.9276" y2="2488.999">
				<stop  offset="0" style="stop-color:#311944"/>
				<stop  offset="1" style="stop-color:#A03976"/>
			</linearGradient>
			<path style="fill:url(#SVGID_00000080169322923827180290000010572855281992949638_);" d="M1462.619,2475.673
				c23.368-12.412,51.338,0.311,53.14,1.163c5.135,2.423,12.608,6.741,20.157,14.453c0.854,1.164,10.991,15.209,7.297,19.71
				c-2.959,3.606-14.422,0.617-28.198-7.951c-5.775-0.81-14.371-1.554-24.67-0.605c-18.912,1.745-27.576,7.719-34.442,2.562
				c-5.027-3.775-6.741-11.758-4.932-17.692C1452.915,2480.938,1458.664,2477.776,1462.619,2475.673z"/>
		</g>
	</g>
</g>
</svg>
