<?xml version="1.0" encoding="utf-8"?>
<!-- Generator: Adobe Illustrator 27.5.0, SVG Export Plug-In . SVG Version: 6.00 Build 0)  -->
<svg version="1.1" xmlns="http://www.w3.org/2000/svg" xmlns:xlink="http://www.w3.org/1999/xlink" x="0px" y="0px"
	 viewBox="0 0 3710 3710" style="enable-background:new 0 0 3710 3710;" xml:space="preserve">
<g id="Background">
	<g>
		<g>
			<rect style="fill:#FFFFFF;" width="3710" height="3710"/>
		</g>
	</g>
</g>
<g id="Illustration">
	<g>
		<path style="fill:#F4F7FA;" d="M3181.89,1775.175c46.765,234.353,141.547,709.328-85.271,1027.073
			c-411.652,576.677-1811.64,536.039-2402.986-191.03c-51.125-62.859-307.589-390.748-279.607-839.734
			c48.537-778.781,924.637-1469.054,1626.768-1333.479c410.924,79.345,684.041,426.457,796.48,569.36
			C2883.612,1066.259,3095.829,1343.902,3181.89,1775.175z"/>
		<g>
			<g>
				<g>
					<defs>
						<path id="SVGID_1_" d="M2326.798,2958.593c37.124-99.07,76.347-249.565,44.049-419.028
							c-42.36-222.248-170.518-281.85-324.992-617.262c-97.672-212.078-163.699-361.066-96.746-491.251
							c52.468-102.019,180.317-180.276,289.561-163.665c90.833,13.812,179.439,94.828,226.716,160.543
							c38.531,53.557,51.646,99.781,100.462,113.913c49.889,14.442,78.219-21.667,121.853-14.27
							c88.488,15.001,127.917,189.946,134.289,218.22c70.886,314.519-94.467,631.889-168.262,769.458
							C2592.712,2628.996,2491.205,2790.542,2326.798,2958.593z"/>
					</defs>
					
						<linearGradient id="SVGID_00000142135570884631047860000009337450784238444945_" gradientUnits="userSpaceOnUse" x1="1921.9198" y1="2111.8738" x2="2839.27" y2="2111.8738">
						<stop  offset="0" style="stop-color:#AA80F9"/>
						<stop  offset="0.9964" style="stop-color:#6165D7"/>
					</linearGradient>
					
						<use xlink:href="#SVGID_1_"  style="overflow:visible;fill:url(#SVGID_00000142135570884631047860000009337450784238444945_);"/>
					<clipPath id="SVGID_00000170989034074763157310000015372316810539158178_">
						<use xlink:href="#SVGID_1_"  style="overflow:visible;"/>
					</clipPath>
					<g style="opacity:0.5;clip-path:url(#SVGID_00000170989034074763157310000015372316810539158178_);">
						<path style="fill:#FFFFFF;" d="M2273.722,3049.86l-5.377-4.999c97.562-104.931,174.018-210.351,227.25-313.333
							c78.467-151.81,103.775-293.994,75.216-422.602c-22.371-100.743-76.173-190.045-150.636-313.642
							c-59.445-98.671-110.482-163.246-155.511-220.219c-58.878-74.5-105.385-133.345-142.741-233.62
							c-37.905-101.763-53.511-213.809-46.384-333.026l7.328,0.437c-7.063,118.19,8.393,229.229,45.94,330.026
							c36.952,99.193,83.142,157.637,141.619,231.63c45.166,57.145,96.354,121.914,156.039,220.983
							c72.007,119.52,128.885,213.925,151.518,315.839c28.939,130.333,3.417,274.188-75.865,427.566
							C2448.579,2838.473,2371.735,2944.441,2273.722,3049.86z"/>
						<path style="fill:#FFFFFF;" d="M2370.825,1924.862c-21.905,0-94.554-2.576-181.034-33.277
							c-95.389-33.865-227.734-109.832-316.522-279.431l6.503-3.406c87.62,167.366,218.129,242.366,312.184,275.814
							c89.054,31.667,163.162,33.116,181.124,32.951c-35.611-213.947,6.701-380.036,48.65-481.943
							c45.793-111.25,101.168-172.293,101.724-172.898l5.41,4.964c-0.549,0.597-55.193,60.899-100.48,171.053
							c-41.777,101.625-83.906,267.702-47.359,481.784l0.699,4.089l-4.145,0.197
							C2377.447,1924.764,2375.098,1924.862,2370.825,1924.862z"/>
						<path style="fill:#FFFFFF;" d="M2534.385,2195.875l-2.323-1.311c-1.162-0.652-117.588-65.864-247.09-108.387
							c-128.713-42.268-346.494,28.462-348.681,29.183l-2.294-6.973c2.205-0.726,222.252-72.201,353.263-29.187
							c120.015,39.407,228.831,98.184,246.05,107.661c180.643-170.761,161.868-781.714,161.656-787.887l7.335-0.251
							c0.054,1.556,5.13,157.573-12.623,332.512c-23.891,235.438-75.477,391.157-153.328,462.833L2534.385,2195.875z"/>
						<path style="fill:#FFFFFF;" d="M2522.027,2693.819l0.466-7.301c7.744-121.485-49.26-216.908-169.425-283.62
							c-89.936-49.928-183.303-64.023-184.235-64.161l1.061-7.263c0.947,0.138,95.644,14.434,186.738,65.005
							c118.689,65.893,178.582,163.66,173.58,283.104c22.719-15.608,106.292-75.346,200.479-171.214
							c101.469-103.28,236.37-270.828,302.817-482.506l129.096-411.261l7.005,2.198l-129.096,411.261
							c-66.905,213.142-202.638,381.712-304.72,485.593c-110.579,112.522-206.674,175.552-207.632,176.174L2522.027,2693.819z"/>
					</g>
				</g>
			</g>
			<g>
				<g>
					<defs>
						<path id="SVGID_00000023275108963909559480000017261846173538262168_" d="M2342.522,2930.809
							c167.04-0.526,379.757-25.029,582.786-119.297c51.813-24.057,371.892-172.674,332.467-318.735
							c-13.888-51.45-60.655-59.133-80.424-127.597c-23.426-81.125,27.241-122.266,61.636-224.003
							c20.523-60.705,80.586-238.361-26.453-335.335c-63.964-57.948-184.705-84.464-276.187-62.149
							c-134.185,32.732-179.126,164.106-251.324,387.71c-64,198.216-46.572,246.543-95.149,388.473
							C2553.822,2625.21,2485.411,2770.423,2342.522,2930.809z"/>
					</defs>
					
						<linearGradient id="SVGID_00000122002343622576423290000005356259129093574316_" gradientUnits="userSpaceOnUse" x1="3168.5767" y1="1749.6772" x2="2767.7542" y2="2825.5708">
						<stop  offset="0.0036" style="stop-color:#E38DDD"/>
						<stop  offset="1" style="stop-color:#9571F6"/>
					</linearGradient>
					
						<use xlink:href="#SVGID_00000023275108963909559480000017261846173538262168_"  style="overflow:visible;fill:url(#SVGID_00000122002343622576423290000005356259129093574316_);"/>
					<clipPath id="SVGID_00000029752623613865299630000005449557778021633424_">
						<use xlink:href="#SVGID_00000023275108963909559480000017261846173538262168_"  style="overflow:visible;"/>
					</clipPath>
					<g style="opacity:0.5;clip-path:url(#SVGID_00000029752623613865299630000005449557778021633424_);">
						<path style="fill:#FFFFFF;" d="M1913.418,3025.933c-93.396,0-188.995-12.414-286.08-37.235l1.818-7.113
							c183.312,46.866,361.256,49.224,528.885,7.02c223.306-56.224,416.142-192.243,573.148-404.277
							c163.535-220.854,247.244-468.834,288.666-637.974c28.674-117.068,21.633-246.308-20.923-384.127l7.012-2.165
							c42.957,139.106,50.034,269.661,21.045,388.038c-41.587,169.796-125.637,418.763-289.899,640.597
							c-158.042,213.436-352.259,350.38-577.257,407.029C2079.839,3015.866,1997.521,3025.933,1913.418,3025.933z"/>
						<path style="fill:#FFFFFF;" d="M2910.083,2284.101l-2.104-2.545c-0.473-0.575-47.951-58.543-86.717-147.368
							c-35.819-82.076-71.383-208.109-37.385-342.436l7.12,1.803c-33.47,132.233,1.595,256.518,36.909,337.495
							c33.772,77.451,74.198,131.152,83.68,143.249c351.656-233.814,345.508-497.019,335.212-572.277
							c-0.319-2.328-0.43-3.166-0.43-3.791h7.342h-3.671l3.671-0.057c0.021,0.432,0.161,1.393,0.362,2.854
							c10.472,76.53,16.811,344.617-341.235,581.254L2910.083,2284.101z"/>
						<path style="fill:#FFFFFF;" d="M2863.936,2595.472c-39.293,0-81.766-2.755-127.573-9.025l-1.943-0.265l-0.86-1.766
							c-0.986-2.029-98.476-206.063-80.296-484.953l18.324-281.148l7.328,0.477l-18.323,281.148
							c-17.151,263.117,69.286,458.984,78.747,479.501c119.707,16.142,291.99,17.322,436.914-67.4
							c87.107-50.923,123.446-109.631,123.804-110.219l6.278,3.809c-1.488,2.45-37.421,60.626-125.956,112.503
							C3115.915,2555.905,3012.822,2595.472,2863.936,2595.472z"/>
					</g>
				</g>
			</g>
			<g>
				<g>
					<defs>
						<path id="SVGID_00000042713866876469628020000004099912193948456596_" d="M2440.771,3005.961
							c-0.428-16.97-1.417-117.028,72.248-178.332c61.67-51.322,142.147-47.593,160.789-46.729
							c75.065,3.478,93.661,38.253,139.844,22.42c54.84-18.802,58.66-78.138,102.459-79.546
							c30.215-0.971,60.379,26.239,69.619,54.355c16.22,49.351-28.152,113.258-79.809,138.497
							c-71.169,34.772-117.839-22.579-201.98,12.602c-48.896,20.444-47.941,46.002-99.128,68.81
							C2545.373,3024.523,2483.932,3016.864,2440.771,3005.961z"/>
					</defs>
					
						<linearGradient id="SVGID_00000042723852823731022720000006682105604569490324_" gradientUnits="userSpaceOnUse" x1="2440.6958" y1="2869.885" x2="2989.1267" y2="2869.885">
						<stop  offset="0" style="stop-color:#FF9085"/>
						<stop  offset="1" style="stop-color:#FB6FBB"/>
					</linearGradient>
					
						<use xlink:href="#SVGID_00000042713866876469628020000004099912193948456596_"  style="overflow:visible;fill:url(#SVGID_00000042723852823731022720000006682105604569490324_);"/>
					<clipPath id="SVGID_00000176754990557760428680000006014324720919716737_">
						<use xlink:href="#SVGID_00000042713866876469628020000004099912193948456596_"  style="overflow:visible;"/>
					</clipPath>
					<g style="opacity:0.5;clip-path:url(#SVGID_00000176754990557760428680000006014324720919716737_);">
						<path style="fill:#FFFFFF;" d="M2417.435,3043.638l-2.918-2.23c25.218-32.938,52.798-64.763,81.977-94.59
							c58.405-59.703,87.724-89.671,123.453-102.215c46.503-16.32,82.734-3.15,117.771,9.583
							c31.011,11.266,60.309,21.912,95.332,12.41c55.648-15.092,100.405-76.098,133.018-181.323l3.506,1.086
							c-33.012,106.505-78.622,168.337-135.564,183.778c-36.145,9.805-65.969-1.029-97.544-12.503
							c-34.442-12.51-70.053-25.454-115.301-9.569c-34.926,12.261-64.041,42.023-122.048,101.319
							C2470.043,2979.106,2442.559,3010.818,2417.435,3043.638z"/>
						<path style="fill:#FFFFFF;" d="M2902.196,2877.778c-6.041,0-11.49-0.315-16.33-0.812
							c-26.229-2.689-40.228-10.87-40.813-11.218l-0.531-0.317l-0.233-0.575c-23.235-57.767,14.469-141.039,14.853-141.874
							l3.334,1.534c-0.376,0.817-37.156,82.09-15.022,138.364c5.887,3.123,60.571,29.54,151.073-12.119l1.534,3.334
							C2959.49,2872.77,2926.209,2877.778,2902.196,2877.778z"/>
						<path style="fill:#FFFFFF;" d="M2800.773,2966.545c-24.146-68.619-179.202-117.968-180.765-118.459l-1.57-0.491l0.319-1.613
							c4.944-25.18,32.84-42.611,82.906-51.81c36.866-6.774,72.763-6.324,73.143-6.326l-0.057,3.671
							c-1.344-0.005-138.64-1.382-152.041,53.583c7.823,2.558,43.111,14.479,80.368,33.033
							c56.702,28.24,90.739,57.577,101.161,87.193L2800.773,2966.545z"/>
						<path style="fill:#FFFFFF;" d="M2699.544,2992.887c-41.971-98.035-193.413-49.898-194.94-49.405l-2.069,0.676l-0.319-2.153
							c-13.684-93.278,70.168-177.816,71.018-178.659l2.588,2.603c-0.828,0.824-82.124,82.811-70.265,173.406
							c18.697-5.521,156.834-42.566,197.364,52.086L2699.544,2992.887z"/>
					</g>
				</g>
			</g>
		</g>
		<g>
			
				<linearGradient id="SVGID_00000015317161948327811840000010795671676217555639_" gradientUnits="userSpaceOnUse" x1="1703.67" y1="3106.8091" x2="1506.1077" y2="3189.7854">
				<stop  offset="0" style="stop-color:#40447E"/>
				<stop  offset="0.9964" style="stop-color:#3C3B6B"/>
			</linearGradient>
			<path style="fill:url(#SVGID_00000015317161948327811840000010795671676217555639_);" d="M3328.101,2998.703l-2812.363-24.494
				v72.473c0,19.67,12.267,36.397,28.879,39.377l795.252,142.712c9.438,1.694,19.009,2.143,28.532,1.34l1929.137-162.715
				c17.223-1.452,30.562-18.23,30.562-38.44V2998.703z"/>
			
				<linearGradient id="SVGID_00000034078881572494536260000013908594874974169251_" gradientUnits="userSpaceOnUse" x1="1439.8639" y1="2236.0852" x2="1225.4576" y2="2326.1357">
				<stop  offset="0" style="stop-color:#40447E"/>
				<stop  offset="0.9964" style="stop-color:#3C3B6B"/>
			</linearGradient>
			<path style="fill:url(#SVGID_00000034078881572494536260000013908594874974169251_);" d="M2422.766,2881.221L546.691,3013.801
				c-33.571,2.372-60.867-22.837-60.867-56.312V1616.318c0-33.476,27.296-60.614,60.867-60.614h1876.074
				c27.657,0,50.019,24.532,50.019,54.794v1212.393C2472.785,2853.153,2450.423,2879.266,2422.766,2881.221z"/>
			
				<linearGradient id="SVGID_00000176760730990244509790000017855374822414255235_" gradientUnits="userSpaceOnUse" x1="514.7369" y1="2284.5259" x2="2504.5029" y2="2284.5259">
				<stop  offset="0" style="stop-color:#40447E"/>
				<stop  offset="0.9964" style="stop-color:#3C3B6B"/>
			</linearGradient>
			<path style="fill:url(#SVGID_00000176760730990244509790000017855374822414255235_);" d="M2504.503,1610.481V2822.88
				c0,30.287-23.257,56.389-50.937,58.335l-344.768,24.34L576.326,3013.816c-33.555,2.35-61.589-22.834-61.589-56.315V1616.318
				c0-33.48,28.304-61.234,61.859-61.234h1876.07C2480.346,1555.083,2504.503,1580.23,2504.503,1610.481z"/>
			
				<linearGradient id="SVGID_00000057125114192704642990000017711151547946949567_" gradientUnits="userSpaceOnUse" x1="1796.3462" y1="1688.7157" x2="-1155.2626" y2="7283.5547">
				<stop  offset="0" style="stop-color:#FF9085"/>
				<stop  offset="1" style="stop-color:#FB6FBB"/>
			</linearGradient>
			<path style="fill:url(#SVGID_00000057125114192704642990000017711151547946949567_);" d="M2394.235,2795.745L646.868,2910.909
				c-27.32,1.8-49.521-18.891-49.521-46.219V1690.493c0-27.328,22.201-49.575,49.521-49.688l1747.367-7.231
				c22.816-0.095,41.271,20.007,41.271,44.899v1069.483C2435.505,2772.846,2417.05,2794.241,2394.235,2795.745z"/>
			<path style="fill:#FFFFFF;" d="M1580.9,1592.389c0,12.461-9.656,22.593-21.58,22.629c-11.939,0.037-21.627-10.059-21.627-22.549
				c0-12.49,9.689-22.622,21.627-22.63C1571.244,1569.83,1580.9,1579.926,1580.9,1592.389z"/>
			
				<linearGradient id="SVGID_00000139274423672522792470000000813413575949453498_" gradientUnits="userSpaceOnUse" x1="515.7384" y1="3019.6006" x2="3328.1013" y2="3019.6006">
				<stop  offset="0" style="stop-color:#40447E"/>
				<stop  offset="0.9964" style="stop-color:#3C3B6B"/>
			</linearGradient>
			<path style="fill:url(#SVGID_00000139274423672522792470000000813413575949453498_);" d="M2405.868,2875.208L515.738,3014.762
				l824.131,147.894c9.438,1.694,19.009,2.143,28.532,1.34l1959.699-165.292l-892.167-122.547
				C2425.957,2874.785,2415.894,2874.468,2405.868,2875.208z"/>
			
				<linearGradient id="SVGID_00000169536377535483082070000003058494369748525452_" gradientUnits="userSpaceOnUse" x1="791.5378" y1="2996.5576" x2="2852.1384" y2="2996.5576">
				<stop  offset="0" style="stop-color:#40447E"/>
				<stop  offset="0.9964" style="stop-color:#3C3B6B"/>
			</linearGradient>
			<polygon style="opacity:0.3;fill:url(#SVGID_00000169536377535483082070000003058494369748525452_);" points="791.538,3018.271 
				2365.127,2900.357 2852.138,2966.713 1292.105,3092.758 			"/>
			<g>
				<path style="opacity:0.7;fill:#FFFFFF;" d="M2435.72,1860.606l-1838.587,22.84v-207.703c0-23.29,18.88-42.17,42.17-42.17
					H2393.55c23.29,0,42.17,18.88,42.17,42.17V1860.606z"/>
				<g style="opacity:0.5;">
					<polygon style="fill:#FFFFFF;" points="1749.822,2417.043 710.315,2459.994 710.315,1968.963 1749.822,1951.532 					"/>
					<polygon style="fill:#FFFFFF;" points="2341.268,2392.606 1811.122,2414.51 1811.122,1950.505 2341.268,1941.615 					"/>
					<polygon style="fill:#FFFFFF;" points="2341.268,2727.362 710.315,2824.471 710.315,2524.115 2341.268,2451.498 					"/>
				</g>
				<g>
					
						<linearGradient id="SVGID_00000123419150494717186010000011471921733740976545_" gradientUnits="userSpaceOnUse" x1="677.9957" y1="1749.7988" x2="728.9552" y2="1749.7988">
						<stop  offset="0" style="stop-color:#FF9085"/>
						<stop  offset="1" style="stop-color:#FB6FBB"/>
					</linearGradient>
					<path style="fill:url(#SVGID_00000123419150494717186010000011471921733740976545_);" d="M728.955,1749.651
						c0,12.837-11.385,23.323-25.447,23.422c-14.082,0.098-25.512-10.255-25.512-23.125s11.43-23.356,25.512-23.422
						C717.57,1726.46,728.955,1736.813,728.955,1749.651z"/>
					
						<linearGradient id="SVGID_00000148626700425161796360000005491406749723971740_" gradientUnits="userSpaceOnUse" x1="770.4925" y1="1749.2629" x2="820.983" y2="1749.2629">
						<stop  offset="0" style="stop-color:#FF9085"/>
						<stop  offset="1" style="stop-color:#FB6FBB"/>
					</linearGradient>
					<path style="fill:url(#SVGID_00000148626700425161796360000005491406749723971740_);" d="M820.983,1749.116
						c0,12.778-11.28,23.216-25.213,23.313c-13.952,0.097-25.277-10.209-25.277-23.02c0-12.811,11.325-23.248,25.277-23.313
						C809.703,1726.032,820.983,1736.338,820.983,1749.116z"/>
					
						<linearGradient id="SVGID_00000133527975345830191500000006077292434988143489_" gradientUnits="userSpaceOnUse" x1="862.139" y1="1748.7319" x2="912.1671" y2="1748.7319">
						<stop  offset="0" style="stop-color:#FF9085"/>
						<stop  offset="1" style="stop-color:#FB6FBB"/>
					</linearGradient>
					<path style="fill:url(#SVGID_00000133527975345830191500000006077292434988143489_);" d="M912.167,1748.587
						c0,12.72-11.177,23.109-24.983,23.205c-13.824,0.096-25.046-10.163-25.046-22.915s11.221-23.141,25.046-23.206
						C900.99,1725.608,912.167,1735.867,912.167,1748.587z"/>
				</g>
			</g>
			<path style="opacity:0.48;fill:#FFFFFF;" d="M2108.348,2905.554L576.101,3013.816c-33.555,2.35-61.364-22.834-61.364-56.315
				v-1190.74c7.342,6.792,13.859,13.217,21.275,19.237c114.65,92.807,244.747,3.268,365.16,100.003
				c99.23,79.774,41.754,166.23,156.955,277.319c91.155,87.851,150.249,55.031,240.928,152.684
				c81.866,88.108,49.224,132.125,115.782,191.084c109.731,97.285,223.479-1.322,368.086,76.506
				c115.971,62.373,97.329,155.951,204.858,250.85C2017.59,2860.766,2056.586,2886.611,2108.348,2905.554z"/>
		</g>
		<g>
			
				<linearGradient id="SVGID_00000137813492881635349660000009121001357737710499_" gradientUnits="userSpaceOnUse" x1="1374.208" y1="2.5022" x2="761.5665" y2="1534.1067">
				<stop  offset="0" style="stop-color:#311944"/>
				<stop  offset="1" style="stop-color:#893976"/>
			</linearGradient>
			<path style="fill:url(#SVGID_00000137813492881635349660000009121001357737710499_);" d="M1283.415,738.823
				c0,5.405,0.38,10.755-0.188,16.025c-0.243,2.27-0.203,4.513-0.554,6.729c-0.702,4.459-1.425,8.864-2.533,13.188
				c-0.541,2.162-1.05,4.323-1.672,6.458c-0.433,1.405-0.85,2.838-1.309,4.243c-11.026,33.022-33.461,61.64-63.375,82.988
				c-0.649,0.46-1.26,0.919-1.908,1.351c-10.296,7.188-21.425,13.485-33.288,18.862c-0.73,0.325-1.457,0.649-2.213,0.973
				c-5.216,2.297-10.565,4.404-16.05,6.323c-2.324,0.811-4.702,1.595-7.08,2.324c-1.594,0.513-3.189,1-4.809,1.459
				c-2.405,0.703-4.837,1.351-7.297,1.973c-1.622,0.405-3.27,0.811-4.918,1.189c-20.646,4.756-42.562,6.864-65.126,5.865
				c-1.676-0.082-3.352-0.162-5-0.271c-0.487-0.027-0.972-0.081-1.432-0.108c-0.136,0-0.27-0.027-0.406-0.027
				c-1.053-0.081-2.107-0.135-3.134-0.243c-0.541-0.054-1.054-0.081-1.568-0.135c-1.135-0.108-2.297-0.216-3.432-0.325
				c-0.487-0.054-0.972-0.135-1.459-0.189c-1.162-0.108-2.351-0.243-3.512-0.405c-0.433-0.054-0.838-0.108-1.271-0.162
				c-1.243-0.162-2.486-0.324-3.757-0.513c-0.297-0.054-0.621-0.108-0.945-0.162c-1.379-0.189-2.73-0.405-4.109-0.648
				c-0.189-0.027-0.377-1.578-0.54-1.605c-1.54-0.27-3.081-2.361-4.594-2.361h-0.026c-12.864,0-25.241-4.395-36.995-8.745
				c0.026-0.027,0.026,0.735,0.054,0.708c-3.675-1.351-7.297-2.43-10.864-3.97c-3.161-1.378-6.27-2.62-9.323-4.106
				c-1.486,1.189-3.216,2.527-5.134,3.851c-24.564-10.566-46.21-25.057-63.775-42.514c2.055-2.783,4.027-5.678,5.837-8.732
				c-25.321-28.861-40.184-64.331-40.184-102.136c0-90.663,85.474-166.755,195.568-170.079c3.594-0.108,5.889-0.132,9.429-0.078
				c107.877,1.378,197.813,72.993,201.484,165.304v0.108c0,1.162,0,2.351,0,3.54v0.54
				C1282.008,736.471,1283.415,737.634,1283.415,738.823z"/>
			<g>
				
					<linearGradient id="SVGID_00000116933768440758078680000002546787491981004203_" gradientUnits="userSpaceOnUse" x1="989.3683" y1="595.348" x2="1271.3662" y2="1118.3705">
					<stop  offset="0" style="stop-color:#FF9085"/>
					<stop  offset="1" style="stop-color:#FB6FBB"/>
				</linearGradient>
				<path style="fill:url(#SVGID_00000116933768440758078680000002546787491981004203_);" d="M1270.094,738.201
					c0,96.825-93.662,171.571-205.836,170.166c-2.594-0.027-5.215-0.108-7.836-0.216c-2.378-0.107-4.755-0.243-7.107-0.432
					c-2.406-0.162-4.81-0.379-7.189-0.622c-0.486-0.054-0.973-0.081-1.459-0.162c-1.54-0.162-3.053-0.325-4.593-0.54
					c-1.513-0.189-3-0.378-4.513-0.622c-2.163-0.297-4.324-0.648-6.459-1.027c-1.297-0.243-2.568-0.459-3.837-0.702
					c-12.836-2.487-25.213-5.946-36.968-10.323c-3.621-1.351-7.161-2.756-10.647-4.27c-24.564-10.566-46.21-25.105-63.775-42.562
					c-30.672-30.374-49.019-69.504-49.019-111.525c0-90.663,85.474-166.761,195.567-170.085c8.566-0.27,17.026-0.081,25.375,0.54
					c89.515,6.465,164.132,61.345,183.414,134.832c0.003,0.01,0.005,0.019,0.008,0.029c0.484,1.849,0.94,3.706,1.354,5.578
					c0.135,0.603,0.255,1.21,0.381,1.816c0.31,1.488,0.623,2.976,0.887,4.478c0.393,2.205,0.746,4.421,1.038,6.653
					c-0.028,0.027,0,0.054,0,0.108c0.108,0.837,0.216,1.702,0.297,2.54c0.136,1.054,0.243,2.108,0.325,3.162
					c0.108,1.162,0.216,2.351,0.271,3.513c0.026,0.352,0.054,0.73,0.08,1.081c0.082,1.351,0.136,2.702,0.162,4.053
					C1270.068,735.174,1270.094,736.688,1270.094,738.201z"/>
				
					<linearGradient id="SVGID_00000036246759156155494180000016366942201356047490_" gradientUnits="userSpaceOnUse" x1="989.3683" y1="595.348" x2="1271.3662" y2="1118.3705">
					<stop  offset="0" style="stop-color:#FF9085"/>
					<stop  offset="1" style="stop-color:#FB6FBB"/>
				</linearGradient>
				<path style="fill:url(#SVGID_00000036246759156155494180000016366942201356047490_);" d="M1270.094,738.201
					c0,96.825-93.662,171.571-205.836,170.166c-2.594-0.027-5.215-0.108-7.836-0.216c-2.378-0.107-4.755-0.243-7.107-0.432
					c-2.406-0.162-4.81-0.379-7.189-0.622c-0.486-0.054-0.973-0.081-1.459-0.162c-1.54-0.162-3.053-0.325-4.593-0.54
					c-1.513-0.189-3-0.378-4.513-0.622c-2.163-0.297-4.324-0.648-6.459-1.027c-1.297-0.243-2.568-0.459-3.837-0.702
					c-12.836-2.487-25.213-5.946-36.968-10.323c-3.621-1.351-7.161-2.756-10.647-4.27c-24.564-10.566-46.21-25.105-63.775-42.562
					c-30.672-30.374-49.019-69.504-49.019-111.525c0-90.663,85.474-166.761,195.567-170.085c8.566-0.27,17.026-0.081,25.375,0.54
					c89.515,6.465,164.132,61.345,183.414,134.832c0.003,0.01,0.005,0.019,0.008,0.029c0.484,1.849,0.94,3.706,1.354,5.578
					c0.135,0.603,0.255,1.21,0.381,1.816c0.31,1.488,0.623,2.976,0.887,4.478c0.393,2.205,0.746,4.421,1.038,6.653
					c-0.028,0.027,0,0.054,0,0.108c0.108,0.837,0.216,1.702,0.297,2.54c0.136,1.054,0.243,2.108,0.325,3.162
					c0.108,1.162,0.216,2.351,0.271,3.513c0.026,0.352,0.054,0.73,0.08,1.081c0.082,1.351,0.136,2.702,0.162,4.053
					C1270.068,735.174,1270.094,736.688,1270.094,738.201z"/>
				<g>
					<path style="fill:#FFFFFF;" d="M944.276,690.878L944.276,690.878c8.276-23.599,28.953-40.54,53.384-40.833
						c32.261-0.388,58.751,28.337,58.751,64.164c0-35.827,26.798-65.192,60.287-65.595c26.008-0.313,48.469,16.896,57.578,41.554
						l0.001,0c34.91,88.99-117.866,167.071-117.866,167.071S913.127,774.537,944.276,690.878z"/>
				</g>
				<g style="opacity:0.3;">
					
						<linearGradient id="SVGID_00000179645068524627340280000000418506534484902846_" gradientUnits="userSpaceOnUse" x1="-1475.3909" y1="625.2118" x2="-1198.9753" y2="1179.9113" gradientTransform="matrix(-1 0 0 1 -258.321 0)">
						<stop  offset="0" style="stop-color:#FF9085"/>
						<stop  offset="1" style="stop-color:#FB6FBB"/>
					</linearGradient>
					<path style="fill:url(#SVGID_00000179645068524627340280000000418506534484902846_);" d="M1007.356,862.781
						c24.243-49.516-0.264-96.917,32.571-129.08c33.845-33.152,78.578-1.876,127.696-29.308
						c19.267-10.761,40.875-31.492,57.064-74.319c28.38,29.632,45.401,67.193,45.401,108.115
						c0,99.069-98.064,175.056-213.677,169.958c-25.694-1.133-50.005-6.192-72.16-14.383
						C995.149,883.583,1002.392,872.92,1007.356,862.781z"/>
				</g>
			</g>
		</g>
		<g>
			
				<linearGradient id="SVGID_00000165944829090269852190000009963467626982340256_" gradientUnits="userSpaceOnUse" x1="1206.3749" y1="976.1015" x2="1357.8727" y2="1149.4824">
				<stop  offset="0" style="stop-color:#FFC444"/>
				<stop  offset="0.9964" style="stop-color:#F36F56"/>
			</linearGradient>
			<path style="fill:url(#SVGID_00000165944829090269852190000009963467626982340256_);" d="M1583.929,1132.522
				c0.067,0.74,0.129,1.481,0.184,2.224c0.046,0.613,0.09,1.226,0.127,1.841c0.055,0.889,0.096,1.782,0.133,2.675
				c0.02,0.493,0.046,0.985,0.061,1.48c0.043,1.402,0.069,2.808,0.069,4.22c0,6.146-0.406,12.226-1.198,18.222
				c-1.386,10.494-3.953,20.736-7.594,30.644c-0.52,1.416-1.062,2.825-1.626,4.226c-2.255,5.606-4.855,11.1-7.781,16.466
				c-6.584,12.073-14.816,23.498-24.468,34.103c-2.145,2.357-4.36,4.673-6.642,6.947c-2.282,2.273-4.632,4.505-7.048,6.692
				c-9.661,8.748-20.362,16.786-31.944,23.995c-1.448,0.901-2.909,1.788-4.385,2.664c-2.95,1.749-5.954,3.446-9.009,5.088
				c-10.693,5.747-22.013,10.823-33.854,15.147c-3.383,1.235-6.809,2.409-10.274,3.52c-3.465,1.11-6.971,2.157-10.514,3.14
				c-3.543,0.983-7.123,1.899-10.739,2.749c-19.884,4.673-40.826,7.316-62.406,7.614c-1.849,0.025-3.692,0.031-5.529,0.022
				c-0.59-0.003-1.176-0.017-1.764-0.024c-1.252-0.013-2.504-0.028-3.75-0.057c-0.671-0.016-1.339-0.043-2.008-0.063
				c-1.162-0.036-2.323-0.073-3.48-0.122c-0.685-0.029-1.366-0.067-2.05-0.101c-1.144-0.057-2.288-0.117-3.427-0.187
				c-0.664-0.041-1.325-0.089-1.986-0.134c-1.163-0.08-2.323-0.165-3.48-0.259c-0.624-0.051-1.246-0.105-1.869-0.16
				c-1.204-0.105-2.405-0.218-3.603-0.339c-0.562-0.057-1.123-0.115-1.683-0.175c-1.28-0.137-2.555-0.283-3.827-0.437
				c-0.467-0.056-0.934-0.112-1.4-0.171c-1.408-0.177-2.81-0.366-4.208-0.564c-0.321-0.046-0.644-0.09-0.965-0.136
				c-1.622-0.235-3.237-0.485-4.845-0.748c-0.093-0.015-0.187-0.029-0.281-0.045c-10.286-1.691-20.285-3.93-29.936-6.689
				c0.009-0.009,0.018-0.016,0.027-0.025c-82.483-23.627-140.169-84.843-140.169-157.432c0-94.373,97.494-175.332,220.233-180.939
				c118.527-5.415,217.756,61.093,228.502,151.281c0.07,0.586,0.142,1.173,0.205,1.762
				C1583.801,1131.13,1583.866,1131.825,1583.929,1132.522z"/>
			<g>
				
					<linearGradient id="SVGID_00000111192339974924128820000006572392625476171932_" gradientUnits="userSpaceOnUse" x1="-1678.4475" y1="1003.2814" x2="-1382.7229" y2="1551.7631" gradientTransform="matrix(-1 0 0 1 -258.321 0)">
					<stop  offset="0" style="stop-color:#FFC444"/>
					<stop  offset="0.9964" style="stop-color:#F36F56"/>
				</linearGradient>
				<path style="fill:url(#SVGID_00000111192339974924128820000006572392625476171932_);" d="M1120.061,1158.332
					c0,94.373,95.383,169.535,215.463,167.845c122.84-1.729,224.513-82.877,224.513-181.214
					c0-98.337-101.672-173.307-224.513-167.57C1215.444,983,1120.061,1063.959,1120.061,1158.332z"/>
				<path style="fill:#FFFFFF;" d="M1271.488,1060.003v166.96c0,10.718,9.075,17.408,16.915,12.487l139.818-87.768
					c8.72-5.474,8.72-20.979,0-25.923l-139.818-79.271C1280.563,1042.043,1271.488,1049.285,1271.488,1060.003z"/>
				<g style="opacity:0.3;">
					
						<linearGradient id="SVGID_00000044878858685697807090000001267486506551812537_" gradientUnits="userSpaceOnUse" x1="-1760.8256" y1="1032.348" x2="-1469.2252" y2="1617.52" gradientTransform="matrix(-1 0 0 1 -258.321 0)">
						<stop  offset="0" style="stop-color:#FFC444"/>
						<stop  offset="0.9964" style="stop-color:#F36F56"/>
					</linearGradient>
					<path style="fill:url(#SVGID_00000044878858685697807090000001267486506551812537_);" d="M1282.401,1282.725
						c26.329-51.851-0.288-99.141,35.34-133.35c36.44-34.989,84.166-4.975,136.008-34.411c20.177-11.456,42.699-32.904,59.5-76.137
						c29.305,28.731,46.789,65.517,46.789,106.136c0,98.337-101.672,179.485-224.513,181.214
						c-27.749,0.391-54.159-3.317-78.357-10.389C1269.087,1304.713,1276.991,1293.378,1282.401,1282.725z"/>
				</g>
			</g>
		</g>
		<g>
			
				<linearGradient id="SVGID_00000081632617456838085640000018157102418448497799_" gradientUnits="userSpaceOnUse" x1="1461.0337" y1="701.6884" x2="1741.8271" y2="716.7309">
				<stop  offset="0" style="stop-color:#AA80F9"/>
				<stop  offset="0.9964" style="stop-color:#6165D7"/>
			</linearGradient>
			<path style="fill:url(#SVGID_00000081632617456838085640000018157102418448497799_);" d="M1588.13,853.825
				c-0.55-0.038-1.096-0.085-1.644-0.126c-0.997-0.076-1.993-0.153-2.985-0.24c-0.552-0.048-1.1-0.104-1.65-0.156
				c-0.992-0.094-1.984-0.191-2.971-0.296c-0.524-0.056-1.047-0.117-1.569-0.177c-1.021-0.116-2.04-0.236-3.056-0.364
				c-0.476-0.06-0.95-0.123-1.425-0.186c-1.073-0.141-2.143-0.289-3.21-0.444c-0.407-0.059-0.814-0.12-1.22-0.181
				c-1.16-0.175-2.316-0.358-3.468-0.549c-0.304-0.05-0.608-0.1-0.912-0.151c-1.294-0.219-2.583-0.449-3.867-0.688
				c-0.157-0.029-0.315-0.058-0.472-0.087c-10.252-1.929-20.176-4.478-29.692-7.601c0.009-0.008,0.018-0.015,0.026-0.023
				c-69.206-22.754-117.424-75.611-117.424-135.656c0-78.11,81.589-142.033,184.843-142.797
				c100.38-0.742,184.836,58.16,193.868,134.039c0.05,0.414,0.101,0.828,0.146,1.243c0.067,0.623,0.127,1.249,0.184,1.874
				c0.054,0.588,0.104,1.177,0.148,1.767c0.04,0.533,0.079,1.066,0.112,1.601c0.046,0.735,0.08,1.471,0.111,2.209
				c0.017,0.419,0.04,0.838,0.053,1.258c0.036,1.174,0.059,2.351,0.059,3.532c0,39.849-20.747,75.373-54.217,101.022
				c-2.16,1.655-4.372,3.269-6.635,4.84c-2.263,1.571-4.577,3.1-6.94,4.584c-1.181,0.742-2.375,1.474-3.58,2.194
				c-2.411,1.44-4.869,2.835-7.373,4.184c-2.504,1.349-5.053,2.651-7.645,3.906c-2.194,1.062-4.426,2.082-6.68,3.074
				c-12.635,5.562-26.199,10.022-40.469,13.218c-2.741,0.614-5.504,1.187-8.295,1.707c-16.851,3.137-34.587,4.534-52.849,3.945
				c-1.558-0.051-3.112-0.117-4.66-0.195c-0.483-0.024-0.963-0.058-1.445-0.085C1590.261,853.96,1589.193,853.899,1588.13,853.825z"
				/>
			<g>
				
					<linearGradient id="SVGID_00000054226621993708123680000010383678093807168686_" gradientUnits="userSpaceOnUse" x1="-1912.931" y1="588.2224" x2="-1671.6683" y2="1035.6932" gradientTransform="matrix(-1 0 0 1 -258.321 0)">
					<stop  offset="0" style="stop-color:#AA80F9"/>
					<stop  offset="0.9964" style="stop-color:#6165D7"/>
				</linearGradient>
				<path style="fill:url(#SVGID_00000054226621993708123680000010383678093807168686_);" d="M1402.871,706.902
					c0,78.11,80.139,144.065,181.557,147.399c104.366,3.431,191.223-60.406,191.223-142.674
					c0-82.268-86.857-148.306-191.223-147.521C1483.01,564.868,1402.871,628.792,1402.871,706.902z"/>
				<g>
					<path style="fill:#FFFFFF;" d="M1617.859,808.695l-7.822-54.754l-28.328-0.534l7.761,54.538l-27.858-0.735l-7.701-54.326
						l-30.025-0.565v-27.7l25.413,0.38l-4.913-33.893l-28.728-0.293v-27.969l24.435,0.153l-7.96-52.501l27.32-0.029l8.021,52.703
						l28.215,0.177l-7.773-52.911l27.75-0.03l7.833,53.115l31.19,0.196v28.516l-26.795-0.274l5.029,34.29l30.636,0.458v28.243
						l-25.601-0.482l8.198,54.975L1617.859,808.695z M1605.04,725.831l-4.99-34.158l-28.249-0.288l4.951,34.023L1605.04,725.831z"/>
				</g>
				<g style="opacity:0.3;">
					
						<linearGradient id="SVGID_00000123432334847106530550000000845977579877714578_" gradientUnits="userSpaceOnUse" x1="-1982.7295" y1="614.7328" x2="-1745.0958" y2="1091.6067" gradientTransform="matrix(-1 0 0 1 -258.321 0)">
						<stop  offset="0.0036" style="stop-color:#E38DDD"/>
						<stop  offset="1" style="stop-color:#9571F6"/>
					</linearGradient>
					<path style="fill:url(#SVGID_00000123432334847106530550000000845977579877714578_);" d="M1539.488,816.096
						c22.259-42.097-0.243-82.391,29.884-109.537c30.868-27.814,71.378-1.115,115.49-23.809
						c17.198-8.848,36.416-25.969,50.766-61.51c25.057,25.024,40.025,56.405,40.025,90.387c0,82.268-86.857,146.105-191.223,142.674
						c-23.49-0.772-45.816-4.896-66.247-11.72C1528.243,833.847,1534.918,824.739,1539.488,816.096z"/>
				</g>
			</g>
		</g>
		<g>
			<g>
				<g>
					<g>
						
							<linearGradient id="SVGID_00000127762887220053606290000012230624684211224969_" gradientUnits="userSpaceOnUse" x1="-920.2031" y1="1390.1156" x2="-376.8409" y2="1390.1156" gradientTransform="matrix(-0.7838 -0.621 -0.621 0.7838 2663.52 725.2092)">
							<stop  offset="0" style="stop-color:#444B8C"/>
							<stop  offset="0.9964" style="stop-color:#26264F"/>
						</linearGradient>
						<path style="fill:url(#SVGID_00000127762887220053606290000012230624684211224969_);" d="M2342.427,1861.12
							c0,0,240.208,270.107,35.331,704.047c-19.085,40.422-75.003,44.599-100.076,7.592l-159.723-235.74
							c-25.607-37.794-34.068-84.643-23.3-129.007l55.287-227.772L2342.427,1861.12z"/>
						
							<linearGradient id="SVGID_00000129912915755657917510000013026694280017479554_" gradientUnits="userSpaceOnUse" x1="154.1606" y1="1390.0526" x2="697.5606" y2="1390.0526" gradientTransform="matrix(-0.7838 -0.621 -0.621 0.7838 2663.52 725.2092)">
							<stop  offset="0" style="stop-color:#444B8C"/>
							<stop  offset="0.9964" style="stop-color:#26264F"/>
						</linearGradient>
						<path style="fill:url(#SVGID_00000129912915755657917510000013026694280017479554_);" d="M1805.732,1435.849
							c0,0-317.865-172.104-693.482,126.545c-34.989,27.819-26.273,83.212,15.485,99.162l266.01,101.605
							c42.647,16.29,90.19,13.818,130.918-6.807l209.103-105.891L1805.732,1435.849z"/>
					</g>
					<g>
						
							<linearGradient id="SVGID_00000060719485635971180700000005591245493837626506_" gradientUnits="userSpaceOnUse" x1="1847.2938" y1="3076.2305" x2="2194.8533" y2="2418.3506">
							<stop  offset="0" style="stop-color:#FFC444"/>
							<stop  offset="0.9964" style="stop-color:#F36F56"/>
						</linearGradient>
						<path style="fill:url(#SVGID_00000060719485635971180700000005591245493837626506_);" d="M2366.168,1831.159
							c0,0,240.208,270.107,35.331,704.048c-19.084,40.422-75.003,44.599-100.076,7.592l-159.723-235.74
							c-25.607-37.794-34.068-84.643-23.3-129.008l55.287-227.772L2366.168,1831.159z"/>
						
							<linearGradient id="SVGID_00000139979960039919776600000015335128539416969348_" gradientUnits="userSpaceOnUse" x1="912.5304" y1="2582.3921" x2="1260.0903" y2="1924.5114">
							<stop  offset="0" style="stop-color:#FFC444"/>
							<stop  offset="0.9964" style="stop-color:#F36F56"/>
						</linearGradient>
						<path style="fill:url(#SVGID_00000139979960039919776600000015335128539416969348_);" d="M1829.473,1405.888
							c0,0-317.865-172.104-693.482,126.545c-34.989,27.819-26.273,83.212,15.485,99.162l266.01,101.605
							c42.647,16.29,90.19,13.818,130.917-6.807l209.103-105.891L1829.473,1405.888z"/>
					</g>
					
						<linearGradient id="SVGID_00000006679900108374111780000010092563646777662340_" gradientUnits="userSpaceOnUse" x1="-428.3101" y1="992.2983" x2="732.7468" y2="-229.6789" gradientTransform="matrix(-0.7838 -0.621 -0.621 0.7838 2663.52 725.2092)">
						<stop  offset="0" style="stop-color:#FFC444"/>
						<stop  offset="0.9964" style="stop-color:#F36F56"/>
					</linearGradient>
					<path style="fill:url(#SVGID_00000006679900108374111780000010092563646777662340_);" d="M2080.572,726.127
						c337.272-340.429,895.793-217.39,896.092-216.71c0.73,0.135,248.164,515.776-6.132,921.904
						c-230.662,368.382-743.451,635.931-841.963,684.937c-10.597,5.271-27.795,12.491-34.089,2.468
						c-122.392-194.915-286.479-318.114-483.514-382.921c-10.905-3.586-7.488-21.682-4.864-32.857
						C1630.906,1597.296,1774.116,1035.451,2080.572,726.127z"/>
					<g style="opacity:0.3;">
						
							<linearGradient id="SVGID_00000047057465363168253890000001685997634770058645_" gradientUnits="userSpaceOnUse" x1="-522.4968" y1="902.8163" x2="638.5463" y2="-319.1464" gradientTransform="matrix(-0.7838 -0.621 -0.621 0.7838 2663.52 725.2092)">
							<stop  offset="0" style="stop-color:#FFC444"/>
							<stop  offset="0.9964" style="stop-color:#F36F56"/>
						</linearGradient>
						<path style="fill:url(#SVGID_00000047057465363168253890000001685997634770058645_);" d="M2297.741,1241.065
							c188.73-188.946,365.681-111.423,547.961-276.057c66.559-60.116,139.375-157.53,180.338-325.868
							c56.448,179.083,120.092,511.734-55.509,792.18c-230.662,368.382-743.451,635.931-841.962,684.937
							c-10.596,5.272-27.795,12.491-34.089,2.468c-61.831-98.469-134.317-178.608-216.303-242.188
							c70.967-42.122,121.922-89.239,159.59-134.265C2189.679,1560.675,2125.783,1413.221,2297.741,1241.065z"/>
					</g>
					
						<linearGradient id="SVGID_00000173137846811313597880000016953839310078562455_" gradientUnits="userSpaceOnUse" x1="2516.5693" y1="1545.7048" x2="2673.7986" y2="949.888">
						<stop  offset="0" style="stop-color:#FFC444"/>
						<stop  offset="0.9964" style="stop-color:#F36F56"/>
					</linearGradient>
					<path style="fill:url(#SVGID_00000173137846811313597880000016953839310078562455_);" d="M2754.097,790.303
						c-129.867-102.905-289.781-196.089-432.844-225.371c270.214-114.592,565.301-72.405,638.356-58.986
						c10.818,1.988,19.929,9.206,24.336,19.284c29.76,68.055,138.273,345.691,88.496,634.933
						C3021.244,1041.615,2883.962,893.206,2754.097,790.303z"/>
					
						<linearGradient id="SVGID_00000020395195149424411010000010404904985002935951_" gradientUnits="userSpaceOnUse" x1="-460.3158" y1="41.0182" x2="-25.3059" y2="-416.8166" gradientTransform="matrix(-0.7838 -0.621 -0.621 0.7838 2663.52 725.2092)">
						<stop  offset="0" style="stop-color:#FFC444"/>
						<stop  offset="0.9964" style="stop-color:#F36F56"/>
					</linearGradient>
					<path style="opacity:0.3;fill:url(#SVGID_00000020395195149424411010000010404904985002935951_);" d="M3026.037,639.152
						c0.264,0.836,0.527,1.674,0.791,2.517c0.448,1.429,0.895,2.863,1.344,4.311c0.446,1.442,0.892,2.901,1.34,4.362
						c0.424,1.388,0.848,2.779,1.272,4.184c0.468,1.551,0.938,3.116,1.406,4.687c0.401,1.346,0.802,2.694,1.204,4.056
						c0.489,1.66,0.978,3.335,1.467,5.017c0.38,1.308,0.76,2.619,1.14,3.942c0.507,1.765,1.014,3.545,1.52,5.334
						c0.359,1.267,0.717,2.538,1.075,3.817c0.524,1.873,1.046,3.76,1.568,5.657c0.337,1.224,0.674,2.452,1.01,3.685
						c0.537,1.971,1.071,3.958,1.604,5.955c0.322,1.203,0.644,2.408,0.964,3.62c0.542,2.053,1.083,4.119,1.621,6.197
						c0.304,1.175,0.608,2.352,0.911,3.534c0.552,2.151,1.101,4.318,1.648,6.497c0.285,1.136,0.57,2.276,0.854,3.419
						c0.556,2.241,1.109,4.496,1.66,6.764c0.269,1.109,0.539,2.222,0.806,3.337c0.56,2.332,1.116,4.679,1.669,7.038
						c0.251,1.073,0.502,2.149,0.752,3.227c0.56,2.418,1.116,4.849,1.668,7.294c0.237,1.051,0.473,2.105,0.709,3.16
						c0.557,2.497,1.111,5.007,1.659,7.531c0.222,1.026,0.444,2.056,0.665,3.087c0.552,2.57,1.098,5.153,1.639,7.751
						c0.21,1.006,0.418,2.017,0.625,3.028c0.545,2.65,1.086,5.312,1.619,7.989c0.194,0.974,0.386,1.953,0.579,2.931
						c0.537,2.73,1.069,5.472,1.593,8.23c0.18,0.946,0.357,1.896,0.536,2.846c0.526,2.804,1.047,5.62,1.559,8.452
						c0.167,0.922,0.332,1.849,0.496,2.773c0.515,2.885,1.023,5.783,1.522,8.696c0.15,0.878,0.299,1.759,0.447,2.64
						c0.502,2.97,0.997,5.951,1.481,8.949c0.137,0.848,0.271,1.699,0.407,2.549c0.484,3.04,0.962,6.093,1.427,9.161
						c0.126,0.828,0.249,1.66,0.373,2.489c0.464,3.1,0.92,6.211,1.363,9.337c0.115,0.813,0.228,1.629,0.342,2.444
						c0.441,3.167,0.875,6.344,1.295,9.538c0.101,0.775,0.2,1.554,0.301,2.331c0.419,3.238,0.829,6.487,1.224,9.752
						c0.091,0.751,0.178,1.506,0.268,2.26c0.394,3.306,0.778,6.623,1.146,9.955c0.078,0.712,0.154,1.427,0.231,2.14
						c0.366,3.378,0.723,6.767,1.062,10.17c0.068,0.685,0.132,1.375,0.199,2.061c0.336,3.445,0.662,6.9,0.969,10.369
						c0.057,0.645,0.11,1.293,0.166,1.938c0.305,3.516,0.598,7.042,0.872,10.583c0.048,0.612,0.091,1.227,0.137,1.841
						c0.272,3.583,0.529,7.176,0.767,10.784c0.038,0.573,0.072,1.149,0.108,1.723c0.234,3.649,0.455,7.306,0.653,10.978
						c0.03,0.549,0.055,1.101,0.084,1.651c0.195,3.71,0.376,7.428,0.533,11.159c0.021,0.496,0.037,0.995,0.058,1.491
						c0.155,3.789,0.292,7.589,0.407,11.401c0.013,0.447,0.022,0.896,0.036,1.343c0.11,3.863,0.204,7.734,0.271,11.618
						c0.007,0.402,0.01,0.807,0.017,1.209c0.064,3.937,0.11,7.883,0.129,11.841c0.001,0.335-0.001,0.672,0,1.006
						c0.015,4.028,0.01,8.064-0.023,12.11c-0.002,0.268-0.008,0.537-0.01,0.804c-0.038,4.116-0.097,8.24-0.187,12.375
						c-0.004,0.196-0.011,0.394-0.016,0.589c-0.094,4.211-0.211,8.43-0.36,12.66c-0.004,0.1-0.009,0.201-0.012,0.301
						c-1.406,39.585-5.272,79.945-12.258,120.535c-32.72-75.766-100.623-163.716-179.261-244.201
						C2944.73,855.145,2994.702,767.913,3026.037,639.152z"/>
					
						<linearGradient id="SVGID_00000085241595555217917510000018092563399912044223_" gradientUnits="userSpaceOnUse" x1="-497.7692" y1="514.077" x2="274.9974" y2="514.077" gradientTransform="matrix(-0.7838 -0.621 -0.621 0.7838 2663.52 725.2092)">
						<stop  offset="0.0036" style="stop-color:#EBEFF2"/>
						<stop  offset="1" style="stop-color:#FFFFFF"/>
					</linearGradient>
					<path style="fill:url(#SVGID_00000085241595555217917510000018092563399912044223_);" d="M2128.749,957.352
						c-119.353,150.623-80.523,380.162,86.728,512.689c167.25,132.527,399.587,117.858,518.939-32.766
						c119.352-150.623,80.522-380.162-86.728-512.689C2480.438,792.059,2248.1,806.729,2128.749,957.352z"/>
					
						<linearGradient id="SVGID_00000129928030743966781160000007322650728592331426_" gradientUnits="userSpaceOnUse" x1="-497.769" y1="526.7448" x2="275.0162" y2="526.7448" gradientTransform="matrix(-0.7838 -0.621 -0.621 0.7838 2663.52 725.2092)">
						<stop  offset="0.0036" style="stop-color:#EBEFF2"/>
						<stop  offset="1" style="stop-color:#FFFFFF"/>
					</linearGradient>
					<path style="fill:url(#SVGID_00000129928030743966781160000007322650728592331426_);" d="M2297.741,1241.065
						c154.009-154.185,300.175-130.947,447.794-206.633c78.907,128.394,79.568,288.395-11.119,402.842
						c-119.352,150.624-351.689,165.293-518.939,32.767c-13.68-10.84-26.483-22.34-38.428-34.381
						C2199.176,1372.228,2230.339,1308.545,2297.741,1241.065z"/>
					
						<linearGradient id="SVGID_00000078744007280500657490000005739338138258588288_" gradientUnits="userSpaceOnUse" x1="8.7065" y1="267.0949" x2="-181.2256" y2="657.71" gradientTransform="matrix(-0.7838 -0.621 -0.621 0.7838 2663.52 725.2092)">
						<stop  offset="0.0036" style="stop-color:#EBEFF2"/>
						<stop  offset="1" style="stop-color:#FFFFFF"/>
					</linearGradient>
					<path style="fill:url(#SVGID_00000078744007280500657490000005739338138258588288_);" d="M2154,977.36
						c-109.401,138.064-73.809,348.464,79.496,469.941c153.304,121.477,366.269,108.03,475.67-30.034
						c109.4-138.064,73.809-348.464-79.496-469.94C2476.364,825.849,2263.399,839.296,2154,977.36z"/>
					
						<linearGradient id="SVGID_00000159446720340510016000000006971296207201602186_" gradientUnits="userSpaceOnUse" x1="-447.9634" y1="1005.2465" x2="127.4105" y2="165.6007" gradientTransform="matrix(-0.7838 -0.621 -0.621 0.7838 2663.52 725.2092)">
						<stop  offset="0" style="stop-color:#444B8C"/>
						<stop  offset="0.9964" style="stop-color:#26264F"/>
					</linearGradient>
					<path style="fill:url(#SVGID_00000159446720340510016000000006971296207201602186_);" d="M2189.779,1005.711
						c-95.299,120.268-64.295,303.548,69.25,409.367s319.058,94.105,414.357-26.162c95.298-120.268,64.295-303.548-69.25-409.367
						C2470.592,873.73,2285.078,885.443,2189.779,1005.711z"/>
					
						<linearGradient id="SVGID_00000093861080787012986130000002282109480479127462_" gradientUnits="userSpaceOnUse" x1="-132.2008" y1="1735.7559" x2="-108.3079" y2="1423.9523" gradientTransform="matrix(-0.7838 -0.621 -0.621 0.7838 2663.52 725.2092)">
						<stop  offset="0" style="stop-color:#FFC444"/>
						<stop  offset="0.9964" style="stop-color:#F36F56"/>
					</linearGradient>
					<path style="fill:url(#SVGID_00000093861080787012986130000002282109480479127462_);" d="M1599.475,1727.967
						c-32.565,41.097,53.798,163.764,192.896,273.984c139.099,110.219,278.259,166.255,310.824,125.157
						s-53.797-163.764-192.896-273.983C1771.201,1742.905,1632.04,1686.87,1599.475,1727.967z"/>
					
						<linearGradient id="SVGID_00000013183826466046302510000012526856883854923677_" gradientUnits="userSpaceOnUse" x1="-376.1606" y1="1513.6531" x2="153.5136" y2="1513.6531" gradientTransform="matrix(-0.7838 -0.621 -0.621 0.7838 2663.52 725.2092)">
						<stop  offset="0" style="stop-color:#AA80F9"/>
						<stop  offset="0.9964" style="stop-color:#6165D7"/>
					</linearGradient>
					<path style="fill:url(#SVGID_00000013183826466046302510000012526856883854923677_);" d="M1827.153,1849.074l108.094,85.653
						c57.512,45.572,81.655,121.462,61.045,191.887l-19.557,66.827c-7.198,24.596-37.01,34.08-57.096,18.164l-358.465-284.044
						c-20.086-15.917-17.668-47.106,4.631-59.737l60.587-34.315C1690.241,1797.346,1769.64,1803.502,1827.153,1849.074z"/>
					
						<linearGradient id="SVGID_00000054954697931979649650000008063443134500555920_" gradientUnits="userSpaceOnUse" x1="-76.1137" y1="1502.963" x2="-206.3345" y2="1894.8208" gradientTransform="matrix(-0.7838 -0.621 -0.621 0.7838 2663.52 725.2092)">
						<stop  offset="0" style="stop-color:#AA80F9"/>
						<stop  offset="0.9964" style="stop-color:#6165D7"/>
					</linearGradient>
					<path style="fill:url(#SVGID_00000054954697931979649650000008063443134500555920_);" d="M1543.873,1890.465
						c-30.73,38.782,37.417,143.961,152.212,234.923c114.795,90.962,232.766,133.262,263.497,94.48
						c30.73-38.782-37.417-143.961-152.212-234.923C1692.575,1893.984,1574.603,1851.683,1543.873,1890.465z"/>
					
						<linearGradient id="SVGID_00000055695721057233119510000006972673397603559067_" gradientUnits="userSpaceOnUse" x1="-84.5444" y1="1528.333" x2="-183.5122" y2="1826.1448" gradientTransform="matrix(-0.7838 -0.621 -0.621 0.7838 2663.52 725.2092)">
						<stop  offset="0" style="stop-color:#444B8C"/>
						<stop  offset="0.9964" style="stop-color:#26264F"/>
					</linearGradient>
					<path style="fill:url(#SVGID_00000055695721057233119510000006972673397603559067_);" d="M1593.757,1929.994
						c-23.355,29.474,28.438,109.41,115.681,178.541c87.244,69.132,176.902,101.279,200.257,71.805
						c23.355-29.475-28.437-109.41-115.681-178.541C1706.771,1932.668,1617.113,1900.519,1593.757,1929.994z"/>
					<g style="opacity:0.3;">
						
							<linearGradient id="SVGID_00000064332652343759969120000005043820013390991014_" gradientUnits="userSpaceOnUse" x1="-483.7276" y1="980.7263" x2="91.6254" y2="141.1111" gradientTransform="matrix(-0.7838 -0.621 -0.621 0.7838 2663.52 725.2092)">
							<stop  offset="0" style="stop-color:#444B8C"/>
							<stop  offset="0.9964" style="stop-color:#26264F"/>
						</linearGradient>
						<path style="fill:url(#SVGID_00000064332652343759969120000005043820013390991014_);" d="M2297.741,1241.065
							c130.984-131.134,256.295-133.931,381.651-178.395c65.845,103.273,67.488,233.493-6.007,326.245
							c-95.3,120.268-280.813,131.982-414.357,26.163c-19.52-15.467-36.829-32.597-51.893-50.936
							C2227.599,1324.024,2255.566,1283.288,2297.741,1241.065z"/>
					</g>
				</g>
			</g>
			<g>
				<defs>
					<path id="SVGID_00000150084973176782384100000005783736250265621400_" d="M1632.677,1919.632c0,0,76.964,6.076,173.054,92.735
						c96.09,86.659,105.386,116.005,108.386,139.267c3,23.262,326.632,654.226,326.632,654.226L646.868,2910.909
						c0,0-47.676,4.249-49.521-36.089c-1.845-40.339,97.276-306.614,97.276-306.614S1520.781,1869.341,1632.677,1919.632z"/>
				</defs>
				<clipPath id="SVGID_00000115492452550025807640000010998494465788695956_">
					<use xlink:href="#SVGID_00000150084973176782384100000005783736250265621400_"  style="overflow:visible;"/>
				</clipPath>
				<path style="clip-path:url(#SVGID_00000115492452550025807640000010998494465788695956_);fill:#FFFFFF;" d="M646.684,3029.633
					c-35.983-65.85-17.298-179.672,22.632-261.821c110.596-227.531,388.193-175.412,613.328-458.319
					c121.185-152.283,96.671-248.433,219.149-324.51c98.438-61.144,144.999-17.772,261.778-95.691
					c89.778-59.902,138.866-137.429,202.514-130.301c19.08,2.137,31.507,10.813,36.583,14.453
					c63.602,45.612,22.012,173.28,14.26,195.826c-56.058,163.017-181.335,182.116-180.628,274.481
					c0.729,95.434,129.037,93.996,190.822,241.233c47.293,112.703,48.109,291.189-33.761,393.777
					c-108.936,136.502-260.429,18.933-594.142,40.191C975.552,2945.94,726.623,3175.924,646.684,3029.633z"/>
			</g>
		</g>
		<g>
			
				<linearGradient id="SVGID_00000030479839397663069850000004921388725516206229_" gradientUnits="userSpaceOnUse" x1="4227.3604" y1="3604.1653" x2="4346.4155" y2="3604.1653" gradientTransform="matrix(-0.4319 -0.9019 -0.9019 0.4319 5692.7109 5444.5669)">
				<stop  offset="0" style="stop-color:#444B8C"/>
				<stop  offset="0.9964" style="stop-color:#26264F"/>
			</linearGradient>
			<path style="fill:url(#SVGID_00000030479839397663069850000004921388725516206229_);" d="M593.942,3078.098
				c-7.478-3.803-20.042,0.463-28.255,3.253c-3.67,1.243-5.504,1.868-6.575,2.815c-7.81,6.907-0.944,24.955,8.497,53.844
				c14.921,45.652,17.253,60.173,25.268,60.707c7.512,0.5,14.044-11.677,14.756-13.038c3.828-7.316,3.422-14.029,2.145-26.791
				c-2.363-23.614-4.829-39.183-5.576-43.897C599.547,3085.551,598.852,3080.597,593.942,3078.098z"/>
			
				<linearGradient id="SVGID_00000052102386768409285110000018335071324052110250_" gradientUnits="userSpaceOnUse" x1="4696.625" y1="3306.8267" x2="4748.853" y2="3198.7263" gradientTransform="matrix(-0.5146 -0.8575 -0.8575 0.5146 5839.5801 5452.521)">
				<stop  offset="0" style="stop-color:#FFC444"/>
				<stop  offset="0.9964" style="stop-color:#F36F56"/>
			</linearGradient>
			<path style="fill:url(#SVGID_00000052102386768409285110000018335071324052110250_);" d="M645.365,3086.363l-47.826,26.458
				c-2.954-0.175-16.727-11.767-15.76-26.26l43.934-32.94L645.365,3086.363z"/>
			
				<linearGradient id="SVGID_00000027584700353533162550000018267762191959512710_" gradientUnits="userSpaceOnUse" x1="1321.5731" y1="2732.1604" x2="911.1827" y2="2640.325">
				<stop  offset="0" style="stop-color:#311944"/>
				<stop  offset="1" style="stop-color:#A03976"/>
			</linearGradient>
			<path style="fill:url(#SVGID_00000027584700353533162550000018267762191959512710_);" d="M1139.652,2164.067
				c16.611,62.848,35.493,152.953,41.533,262.543c5.007,90.844,0.938,191.141-10.012,245.669
				c-54.869,273.24-487.529,416.797-538.521,433.102c-10.703-14.374-21.407-28.747-32.11-43.121
				c53.885-40.055,317.101-241.82,319.724-466.503c0.422-36.169-5.426-114.29-20.602-197.733
				c-16.24-89.291-38.98-161.683-57.14-211.911C941.566,2178.764,1040.609,2171.415,1139.652,2164.067z"/>
			
				<linearGradient id="SVGID_00000036223826419664905360000004172313347507109276_" gradientUnits="userSpaceOnUse" x1="1095.4843" y1="1673.5454" x2="1198.8739" y2="1561.9935">
				<stop  offset="0.0036" style="stop-color:#E38DDD"/>
				<stop  offset="1" style="stop-color:#9571F6"/>
			</linearGradient>
			<path style="fill:url(#SVGID_00000036223826419664905360000004172313347507109276_);" d="M1084.896,1382.06l38.585,7.717
				c0,0,202.567,258.513,173.629,356.903c-28.938,98.39-173.629,23.151-173.629,23.151L1084.896,1382.06z"/>
			
				<linearGradient id="SVGID_00000126287305109739837590000000923022186704574100_" gradientUnits="userSpaceOnUse" x1="1359.1658" y1="3240.3088" x2="1478.2162" y2="3240.3088" gradientTransform="matrix(-0.9996 0.0289 0.0289 0.9996 2205.6753 -31.2392)">
				<stop  offset="0" style="stop-color:#444B8C"/>
				<stop  offset="0.9964" style="stop-color:#26264F"/>
			</linearGradient>
			<path style="fill:url(#SVGID_00000126287305109739837590000000923022186704574100_);" d="M830.666,3222.699
				c-6.51,5.292-7.708,18.507-8.489,27.145c-0.352,3.859-0.525,5.789-0.094,7.152c3.145,9.941,22.426,10.987,52.661,14.077
				c47.78,4.881,61.999,8.641,65.737,1.532c3.505-6.664-4.976-17.574-5.931-18.777c-5.134-6.467-11.435-8.819-23.618-12.829
				c-22.542-7.42-37.773-11.482-42.385-12.712C839.752,3220.599,834.942,3219.224,830.666,3222.699z"/>
			
				<linearGradient id="SVGID_00000136372709533829080860000017895663839590471607_" gradientUnits="userSpaceOnUse" x1="1807.7651" y1="3214.0752" x2="1859.9949" y2="3105.9714" gradientTransform="matrix(-0.9925 0.1225 0.1225 0.9925 2272.9387 -162.6817)">
				<stop  offset="0" style="stop-color:#FFC444"/>
				<stop  offset="0.9964" style="stop-color:#F36F56"/>
			</linearGradient>
			<path style="fill:url(#SVGID_00000136372709533829080860000017895663839590471607_);" d="M859.081,3179.05l4.782,54.447
				c-1.358,2.629-17.541,10.516-30.396,3.752l-12.285-53.519L859.081,3179.05z"/>
			
				<linearGradient id="SVGID_00000119817104303291657240000015340942156045129115_" gradientUnits="userSpaceOnUse" x1="669.3824" y1="3041.1206" x2="332.0337" y2="2280.6563" gradientTransform="matrix(0.9925 -0.1225 0.1225 0.9925 83.0051 108.1241)">
				<stop  offset="0" style="stop-color:#311944"/>
				<stop  offset="1" style="stop-color:#A03976"/>
			</linearGradient>
			<path style="fill:url(#SVGID_00000119817104303291657240000015340942156045129115_);" d="M917.359,2036.486
				c-11.932,217.258-21.747,438.56-29.183,663.782c-5.582,169.006-9.68,335.869-12.404,500.535
				c-19.914,2.458-39.829,4.918-59.745,7.376c-19.242-35.827-44.801-90.601-62.31-160.807
				c-21.266-85.266-16.341-135.902-25.667-224.273c-10.464-99.115-25.662-120.709-52.586-245.741
				c-54.646-253.75-81.97-380.627-21.012-459.55C674.238,2092.187,736.273,2027.914,917.359,2036.486z"/>
			
				<linearGradient id="SVGID_00000028310360710515532070000004467873394852913074_" gradientUnits="userSpaceOnUse" x1="646.8427" y1="2117.8677" x2="1037.8291" y2="1696.0146">
				<stop  offset="0.0036" style="stop-color:#E38DDD"/>
				<stop  offset="1" style="stop-color:#9571F6"/>
			</linearGradient>
			<path style="fill:url(#SVGID_00000028310360710515532070000004467873394852913074_);" d="M641.565,1388.71
				c51.513-14.486,127.007-31.427,219.465-36.653c136.324-7.705,204.509-11.115,244.528,20.223
				c124.112,97.193,6.491,444.588,50.718,627.126c37.214,153.591,38.584,156.266,38.584,156.266
				c8.797,17.171,23.052,41.029,17.363,69.451c-4.474,22.354-21.388,48.04-44.371,55.948
				c-47.76,16.432-75.137-59.931-154.337-82.956c-82.787-24.068-175.411,23.746-292.533,84.205
				c-74.536,38.477-99.988,63.018-126.106,50.84c-50.292-23.45-36.481-152.006-30.867-204.496
				C586.315,1920.085,611.419,1675.876,641.565,1388.71z"/>
			
				<linearGradient id="SVGID_00000016756321128665858680000006975921407388752313_" gradientUnits="userSpaceOnUse" x1="979.2235" y1="1741.8185" x2="1130.7953" y2="1741.8185">
				<stop  offset="0" style="stop-color:#FFC444"/>
				<stop  offset="0.9964" style="stop-color:#F36F56"/>
			</linearGradient>
			<path style="fill:url(#SVGID_00000016756321128665858680000006975921407388752313_);" d="M983.614,1742.822
				c-3.605-0.805-10.026-24.78,5.787-31.832c71.381-31.832,126.62,31.192,134.007,50.584c7.388,19.391,7.388,19.391,7.388,19.391
				s-35.449,2.771-57.433-4.615C1051.377,1768.962,1012.925,1749.357,983.614,1742.822z"/>
			<g>
				<g>
					
						<linearGradient id="SVGID_00000039121203542026058440000000397832171883806356_" gradientUnits="userSpaceOnUse" x1="615.0502" y1="1074.2411" x2="573.3501" y2="1015.027" gradientTransform="matrix(0.2291 -0.9734 -0.9734 -0.2291 2020.0098 2554.8499)">
						<stop  offset="0" style="stop-color:#444B8C"/>
						<stop  offset="0.9964" style="stop-color:#26264F"/>
					</linearGradient>
					<path style="fill:url(#SVGID_00000039121203542026058440000000397832171883806356_);" d="M1178.64,1833.085l-125.582,6.335
						c-4.811,0.243-10.557-5.713-9.373-9.767l58.663-189.835c0.923-3.156,4.137-5.263,7.712-5.065l120.437,2.639
						c3.924,0.231,6.074,7.959,5.008,11.779l-49.903,178.505C1184.779,1830.618,1181.815,1832.926,1178.64,1833.085z"/>
					
						<linearGradient id="SVGID_00000023241685221783974230000009634679157615979947_" gradientUnits="userSpaceOnUse" x1="534.3982" y1="1182.4248" x2="633.6947" y2="980.7289" gradientTransform="matrix(0.2291 -0.9734 -0.9734 -0.2291 2020.0098 2554.8499)">
						<stop  offset="0" style="stop-color:#311944"/>
						<stop  offset="1" style="stop-color:#893976"/>
					</linearGradient>
					<path style="fill:url(#SVGID_00000023241685221783974230000009634679157615979947_);" d="M1176.369,1829.04l-126.274,5.926
						c-4.84,0.227-8.177-3.236-6.992-7.295l56.407-193.117c0.925-3.167,4.156-5.271,7.751-5.059l120.606,7.132
						c3.944,0.233,6.601,4.03,5.53,7.864l-50.035,179.141C1182.538,1826.582,1179.559,1828.891,1176.369,1829.04z"/>
				</g>
				
					<linearGradient id="SVGID_00000009563704181171768830000008859776371009287299_" gradientUnits="userSpaceOnUse" x1="478.1819" y1="1049.453" x2="694.7425" y2="1049.453" gradientTransform="matrix(0.2291 -0.9734 -0.9734 -0.2291 2020.0098 2554.8499)">
					<stop  offset="0" style="stop-color:#311944"/>
					<stop  offset="1" style="stop-color:#893976"/>
				</linearGradient>
				<path style="opacity:0.3;fill:url(#SVGID_00000009563704181171768830000008859776371009287299_);" d="M1112.619,1713.892
					c3.739,17.562,19.536,13.78,32.422,35.036c16.359,26.986,0.682,50.816,15.676,60.699c4.577,3.015,12.311,4.827,26.223,1.188
					l-3.579,12.815c-0.824,2.951-3.803,5.26-6.993,5.409l-126.274,5.926c-4.839,0.226-8.177-3.237-6.992-7.295l56.407-193.117
					c0.925-3.167,4.156-5.272,7.751-5.059l18.118,1.071c2.128,6.636,3.651,14.296,3.485,22.779
					C1128.293,1682.464,1108.239,1693.319,1112.619,1713.892z"/>
			</g>
			
				<linearGradient id="SVGID_00000042694762986587730020000009243132596152360594_" gradientUnits="userSpaceOnUse" x1="1152.36" y1="1661.5706" x2="1266.103" y2="1805.7521">
				<stop  offset="0" style="stop-color:#FFC444"/>
				<stop  offset="0.9964" style="stop-color:#F36F56"/>
			</linearGradient>
			<path style="fill:url(#SVGID_00000042694762986587730020000009243132596152360594_);" d="M1233.912,1699.715
				c0.707-3.037-0.792-6.165-3.05-6.328c-9.19-0.663-30.504-0.932-42.27,9.26c-15.285,13.242-35.05,37.407-18.406,49.601
				l15.542,11.388c0.714,0.523,1.491,0.685,2.274,0.443c5.522-1.717,28.766-9.011,31.308-10.822
				C1221.625,1751.609,1230.488,1714.41,1233.912,1699.715z"/>
			
				<linearGradient id="SVGID_00000036967131450811981400000005100131459686692240_" gradientUnits="userSpaceOnUse" x1="672.7617" y1="2141.8901" x2="1063.7485" y2="1720.0364">
				<stop  offset="0.0036" style="stop-color:#E38DDD"/>
				<stop  offset="1" style="stop-color:#9571F6"/>
			</linearGradient>
			<path style="opacity:0.3;fill:url(#SVGID_00000036967131450811981400000005100131459686692240_);" d="M1129.268,2207.761
				c-13.468-23.347-12.902-58.605-42.443-75.239c-17.223-9.699-30.649-5.164-54.018-5.788
				c-69.661-1.857-82.996-45.683-131.186-48.23c-74.631-3.945-110.48,97.583-152.408,82.956
				c-27.369-9.548-44.992-64.29-30.868-106.107c19.69-58.292,87.167-50.308,175.558-129.257
				c37.813-33.772,92.065-94.721,77.169-121.54c-15.648-28.169-89.891,13.165-144.691-28.938
				c-31.977-24.567-27.896-54.928-54.018-109.965c-14.155-29.824-65.992-107.364-143.086-159.642
				c-24.783,237.044-46.068,443.092-65.269,622.652c-5.613,52.49-19.424,181.046,30.867,204.496
				c26.118,12.178,51.569-12.363,126.106-50.84c117.122-60.459,209.746-108.273,292.533-84.205
				c79.2,23.025,106.577,99.388,154.337,82.956c14.919-5.132,27.205-17.783,35.267-32.126
				C1160.525,2241.285,1139.416,2225.35,1129.268,2207.761z"/>
			<g>
				
					<linearGradient id="SVGID_00000139972008562083362960000005979940727053521816_" gradientUnits="userSpaceOnUse" x1="1051.9957" y1="1388.422" x2="1065.7333" y2="1022.4993" gradientTransform="matrix(0.917 0.3988 -0.3988 0.917 399.6047 -184.8945)">
					<stop  offset="0" style="stop-color:#FFC444"/>
					<stop  offset="0.9964" style="stop-color:#F36F56"/>
				</linearGradient>
				<path style="fill:url(#SVGID_00000139972008562083362960000005979940727053521816_);" d="M882.189,1251.799
					c0.087,10.366,11.133,57.777-23.628,82.948c-35.077,25.399-67.653,25.029-80.801,28.289
					c-30.485,7.558-34.407,7.352-35.081,10.378c-3.283,14.758,79.844,65.056,165.725,52.932
					c52.561-7.418,100.383-37.405,97.448-53.153c-2.955-15.847-55.457-7.344-71.105-36.014c-10.886-19.945,1.317-48.26,15.74-71.709
					C936.517,1239.295,896.157,1277.974,882.189,1251.799z"/>
				<g>
					
						<linearGradient id="SVGID_00000067950903964553883420000004735136573211641229_" gradientUnits="userSpaceOnUse" x1="-108.5202" y1="1036.9576" x2="-207.9581" y2="784.4036" gradientTransform="matrix(-0.9999 0.0148 0.0148 0.9999 733.8099 388.1969)">
						<stop  offset="0" style="stop-color:#311944"/>
						<stop  offset="1" style="stop-color:#6B3976"/>
					</linearGradient>
					<path style="fill:url(#SVGID_00000067950903964553883420000004735136573211641229_);" d="M1001.819,1238.562
						c12.22-16.614,12.667-45.389-1.827-63.412c-12.473-15.51-31.852-17.526-43.455-18.738c-33.62-3.504-75.83,10.983-90.224,42.049
						c-8.528,18.411,10.782,56.254,13.816,63.062c3.436,7.697,9.537,10.284,15.22,16.071c7.875,8.024,20.207,20.786,40.341,42.135
						c1.475-6.382,3.739-14.288,7.377-22.869c1.401-3.304,7.031-16.206,15.648-26.949
						C975.977,1248.377,990.234,1254.307,1001.819,1238.562z"/>
					
						<linearGradient id="SVGID_00000003813825694967916500000009135612912193391245_" gradientUnits="userSpaceOnUse" x1="1649.7831" y1="906.0182" x2="1645.2107" y2="1274.4124" gradientTransform="matrix(0.9972 -0.076 0.076 0.9972 -771.8605 461.87)">
						<stop  offset="0" style="stop-color:#FFC444"/>
						<stop  offset="0.9964" style="stop-color:#F36F56"/>
					</linearGradient>
					<path style="fill:url(#SVGID_00000003813825694967916500000009135612912193391245_);" d="M907.11,1301.906
						c0,0,22.475,35.967,66.392,32.621c39.32-2.998,44.105-91.305,18.764-109.751c-8.455-6.153-25.276-8.561-38.887-4.583
						c-8.039,2.35-10.734,5.731-23.945,9.313c-12.188,3.308-15.653,1.991-19.308,5.135c-4.57,3.936-7.845,13.494,0.147,39.205
						c-7.592-7.517-16.635-10.334-22.988-7.249c-1.011,0.495-3.693,2.361-5.183,5.163
						C876.712,1281.899,886.061,1294.669,907.11,1301.906z"/>
					
						<linearGradient id="SVGID_00000145057299298208894760000009464031959013593733_" gradientUnits="userSpaceOnUse" x1="-138.8972" y1="1049.0511" x2="-238.4364" y2="796.2399" gradientTransform="matrix(-0.9999 0.0148 0.0148 0.9999 733.8099 388.1969)">
						<stop  offset="0" style="stop-color:#311944"/>
						<stop  offset="1" style="stop-color:#6B3976"/>
					</linearGradient>
					<path style="fill:url(#SVGID_00000145057299298208894760000009464031959013593733_);" d="M908.288,1229.383
						c1.913,1.394-3.81,8.539-4.13,18.564c-0.627,19.459,19.321,42.589,39.427,44.346c11.888,1.038,15.072-6.155,34.679-8.447
						c12.138-1.418,22.272,0.016,28.653,1.335c6.405,21.265,0.837,42.598-13.313,52.624c-15.233,10.795-34.915,4.567-43.142,1.962
						c-5.505-1.742-23.143-7.287-32.508-23.303c-9.757-16.689-0.477-26.917-11.582-38.154c-5.602-5.669-12.904-8.07-20.109-19.083
						c-1.956-2.993-3.269-5.644-4.075-7.428C892.223,1240.927,905.518,1227.364,908.288,1229.383z"/>
				</g>
			</g>
			
				<linearGradient id="SVGID_00000107576170138274893310000007179105456062131331_" gradientUnits="userSpaceOnUse" x1="704.13" y1="1898.4198" x2="760.7205" y2="1414.8313">
				<stop  offset="0.0036" style="stop-color:#E38DDD"/>
				<stop  offset="1" style="stop-color:#9571F6"/>
			</linearGradient>
			<path style="fill:url(#SVGID_00000107576170138274893310000007179105456062131331_);" d="M747.285,1447.653
				c-20.815-31.572-62.232-62.554-100.319-59.806c-111.234,8.028-248.35,307.673-154.337,426.356
				c71.766,90.597,293.466,94.995,495.806-61.735c0-17.363,0-34.727,0-52.089c-99.567,17.413-182.11,28.978-243.08,36.655
				c-38.025,4.789-75.906,9.106-82.956-5.787c-10.668-22.536,65.493-54.77,94.531-138.903
				C760.933,1580.747,786.395,1506.974,747.285,1447.653z"/>
		</g>
	</g>
</g>
</svg>
